<svg id="svg2" xmlns="http://www.w3.org/2000/svg" viewBox="0 0 601 301"><defs><style>.cls-1,.cls-2{fill:#fff;}.cls-1{stroke:#000;}</style></defs><g id="layer1"><path id="rect1872" class="cls-1" d="M38,.5H563A37.41,37.41,0,0,1,600.5,38V263A37.41,37.41,0,0,1,563,300.5H38A37.41,37.41,0,0,1,.5,263V38A37.41,37.41,0,0,1,38,.5Z"/><path id="rect4530" d="M38,9.88H563A28.06,28.06,0,0,1,591.12,38V263A28.06,28.06,0,0,1,563,291.12H38A28.06,28.06,0,0,1,9.88,263V38A28.06,28.06,0,0,1,38,9.88Z"/><path id="rect4532" class="cls-2" d="M38,25.5H563A12.48,12.48,0,0,1,575.5,38V263A12.48,12.48,0,0,1,563,275.5H38A12.48,12.48,0,0,1,25.5,263V38A12.48,12.48,0,0,1,38,25.5Z"/><g id="g1946"><path id="text1883" d="M121.74,178.86q0,17-6.18,25.56t-18,8.58H67.68V88H90.5a48.87,48.87,0,0,1,13.84,1.68,18.51,18.51,0,0,1,9,5.6,23.28,23.28,0,0,1,4.77,10.36,75,75,0,0,1,1.4,15.76,63.64,63.64,0,0,1-1.4,14.83,31.79,31.79,0,0,1-4.77,10.54,56,56,0,0,1,3.83,5.41,18.83,18.83,0,0,1,2,5.6,44.12,44.12,0,0,1,2,9.42,101.1,101.1,0,0,1,.66,11.66ZM103.22,121.4q0-9.33-2.25-13.25t-8.23-3.92H83.57v34.15H94.43q5.41,0,7.1-3.55t1.69-13.43Zm2.24,58.77q0-7.47-.47-12.32a28.49,28.49,0,0,0-1.59-7.65,7.41,7.41,0,0,0-3.08-3.91,9.87,9.87,0,0,0-5-1.12H83.57v41.6H95.73q5.61,0,7.67-3.55t2.06-13.05Z"/><path id="text1889" d="M187.72,182.22a59.46,59.46,0,0,1-.94,11.28,29.15,29.15,0,0,1-3,8.5q-3.73,7.08-9.17,10.16c-3.61,2.05-8.17,3.08-13.65,3.08q-9.74,0-15.81-4.29t-9.26-12.87a52.12,52.12,0,0,1-1.59-6.63,53.15,53.15,0,0,1-.66-9.23V88h15.9v96.45q0,7.1,2.9,10.83c1.94,2.48,4.77,3.73,8.52,3.73a9.47,9.47,0,0,0,8-3.73q2.81-3.74,2.81-10.83V88h15.9v94.22Z"/><path id="text1895" d="M253.9,186.32a32.4,32.4,0,0,1-2.71,12.87,26.87,26.87,0,0,1-7.39,10.26,22.92,22.92,0,0,1-7.2,4.2,25.47,25.47,0,0,1-9.07,1.59q-26.19,0-27.69-33.39h16.28a38.18,38.18,0,0,0,.27,5.41,21.47,21.47,0,0,0,1,3.72,10.44,10.44,0,0,0,3.64,5.88,10.1,10.1,0,0,0,6.46,2.15,9,9,0,0,0,7.38-3.36q2.72-3.36,2.72-9.33a39.35,39.35,0,0,0-3.18-15.76A65.67,65.67,0,0,0,224,154.61c-2.87-3.24-5.26-6-7.2-8.31s-3.21-3.88-3.83-4.75q-10.11-12.31-10.1-25.94a35.7,35.7,0,0,1,1.87-11.75A27.26,27.26,0,0,1,210,94.53a24.13,24.13,0,0,1,8.13-6.06,24.4,24.4,0,0,1,10.29-2.14q23,0,25.44,29.28H237.63q-.37-7.27-2.43-10.44a7.06,7.06,0,0,0-6.37-3.17,8.26,8.26,0,0,0-7.2,3.63q-2.52,3.65-2.52,10a17,17,0,0,0,2,8,49.16,49.16,0,0,0,6.83,9.14q5.06,5.79,8.23,9.51t5.33,6.44a37.83,37.83,0,0,1,3.46,5c.88,1.55,1.81,3.32,2.81,5.31a80.25,80.25,0,0,1,4.4,13.34,59.7,59.7,0,0,1,1.77,13.9Z"/><path id="text1901" d="M368.71,213V88h46.21v16.23H384.61v32.09h20.2v16.61h-20.2v43.84h32V213Z"/><path id="text1907" d="M477.94,186.32a32.57,32.57,0,0,1-2.71,12.87,26.87,26.87,0,0,1-7.39,10.26,22.92,22.92,0,0,1-7.2,4.2,25.49,25.49,0,0,1-9.08,1.59q-26.19,0-27.68-33.39h16.27a37.81,37.81,0,0,0,.28,5.41,20.61,20.61,0,0,0,1,3.72,10.44,10.44,0,0,0,3.64,5.88,10.09,10.09,0,0,0,6.45,2.15,9,9,0,0,0,7.39-3.36q2.71-3.36,2.71-9.33a39.35,39.35,0,0,0-3.18-15.76A65.6,65.6,0,0,0,448,154.61c-2.87-3.24-5.27-6-7.2-8.31s-3.21-3.88-3.84-4.75q-10.1-12.31-10.1-25.94a36,36,0,0,1,1.87-11.75,27.59,27.59,0,0,1,5.33-9.33,23.94,23.94,0,0,1,18.43-8.2q23,0,25.44,29.28H461.66q-.36-7.27-2.43-10.44a7,7,0,0,0-6.36-3.17,8.24,8.24,0,0,0-7.2,3.63q-2.52,3.65-2.53,10a17,17,0,0,0,2,8,49.16,49.16,0,0,0,6.83,9.14q5.06,5.79,8.23,9.51c2.12,2.49,3.89,4.64,5.33,6.44a38.81,38.81,0,0,1,3.46,5c.88,1.55,1.81,3.32,2.81,5.31a80.26,80.26,0,0,1,4.39,13.34,59.2,59.2,0,0,1,1.78,13.9Z"/><path id="text1913" d="M539.58,186.32a32.41,32.41,0,0,1-2.72,12.87,26.85,26.85,0,0,1-7.38,10.26,23.09,23.09,0,0,1-7.21,4.2,25.43,25.43,0,0,1-9.07,1.59q-26.19,0-27.69-33.39h16.28a36.36,36.36,0,0,0,.28,5.41,20.51,20.51,0,0,0,1,3.72,10.45,10.45,0,0,0,3.65,5.88A10.09,10.09,0,0,0,513.2,199a9,9,0,0,0,7.39-3.36q2.71-3.36,2.71-9.33a39.35,39.35,0,0,0-3.18-15.76,65.37,65.37,0,0,0-10.48-15.95c-2.86-3.24-5.26-6-7.19-8.31s-3.22-3.88-3.84-4.75q-10.1-12.31-10.1-25.94a35.7,35.7,0,0,1,1.87-11.75,27.42,27.42,0,0,1,5.33-9.33,23.94,23.94,0,0,1,18.43-8.2q23,0,25.44,29.28H523.3q-.37-7.27-2.43-10.44a7,7,0,0,0-6.36-3.17,8.24,8.24,0,0,0-7.2,3.63q-2.54,3.65-2.53,10a17,17,0,0,0,2,8,48.71,48.71,0,0,0,6.83,9.14q5,5.79,8.22,9.51t5.34,6.44a39.83,39.83,0,0,1,3.46,5c.87,1.55,1.81,3.32,2.8,5.31a79.34,79.34,0,0,1,4.4,13.34,59.73,59.73,0,0,1,1.78,13.9Z"/><path id="text1919" d="M338.59,213l-24.51-74.07V213h-15.9V88h15.9l22.27,62.32V88h15.9V213Z"/><path id="text1925" d="M265.82,213V88h15.9V213Z"/></g></g></svg>