<?xml version="1.0" encoding="utf-8"?>
<!-- Generator: Adobe Illustrator 26.3.1, SVG Export Plug-In . SVG Version: 6.00 Build 0)  -->
<svg version="1.1" id="Layer_1" xmlns="http://www.w3.org/2000/svg" xmlns:xlink="http://www.w3.org/1999/xlink" x="0px" y="0px"
	 viewBox="0 0 1642.5 846.5" style="enable-background:new 0 0 1642.5 846.5;" xml:space="preserve">
<style type="text/css">
	.st0{fill:#FFFFFF;}
	.st1{fill:none;stroke:#040404;stroke-width:6;stroke-linecap:round;stroke-linejoin:round;}
	.st2{fill:#5EBDAD;}
	.st3{fill:none;stroke:#040404;stroke-width:8;stroke-linecap:round;stroke-linejoin:round;}
	.st4{fill:#040404;}
	.st5{fill:none;stroke:#000000;stroke-width:25;stroke-miterlimit:10;}
</style>
<g id="Layer_2_00000108994310273616431700000014432931400460104372_">
	<g id="outline_00000074444336114051252110000018372610223545308598_">
		<g id="developer_00000075158716893924569740000017152202939837019549_">
			<path id="chair_00000139979483316026851330000017624271554741011611_" class="st0" d="M367,702.9l-22-175.6
				c-8.7-69.1,40.6-125.2,110.1-125.2h116.3"/>
			<g id="body_00000065052261524108793230000008309916730541787547_">
				<path id="hoodie_00000109711796014952270460000012947506266499440062_" class="st0" d="M644.2,399.1l14.4-20.3l-3.8-27.3
					c-1-1.9-2.1-3.9-3.1-6c-78.8,11.7-88.4,44.8-70.7,80.1C450.2,451.1,393.3,651.8,427.3,747c9.7,27.1,17.5,54.1,46.3,54.4"/>
				<g id="tshirt_00000016755322075535290990000015207930561967190158_">
					<path class="st0" d="M685.3,472c0-0.2,0-0.3,0-0.5c4.3,0.4,8.4,0.4,12.4-3c9.9-8.6,13.4-11.2,13.4-11.2s0.9,1.1,2.5,2.9
						c2-3.6,4-7.4,6.1-11.1c-42.8-33.2-75.6-50-75.6-50l-2.4-1.7L626,416.5C626,416.5,651.6,434.2,685.3,472z"/>
					<path class="st0" d="M892.4,783.5c0,0-68.6-184.4-59.8-241.6c4.8-31.2-2.7-66.5-13-93.8l-19.6,1.3L776.4,505
						c1.5,0.4,3.1,0.7,4.6,0.9c0,0-0.9,5.8-3.1,19.3c-1.5,8.9,1.1,9.9,3.1,16.1c2.6,4.2,4.6,8.9,2.4,16.1c-0.7,2.4-2.4,24.7-6.3,55
						c7.2,15.3,14.1,31.5,20.6,48.7c41.6,110.9,37.3,123,37.3,123L892.4,783.5z"/>
				</g>
				<path id="hoodie-2_00000113323599260541134690000012856898625012648892_" class="st0" d="M1124.6,800
					c-4.9-32.5-40.1-206.8-241.5-359.7c-4.5-27.3-15.9-70.3-74.6-90.4"/>
				<path id="string_00000028312394400508121680000002550330560995559568_" class="st0" d="M848.9,532.3c0,0-2.2,58.9,10.7,101.2"/>
				<path id="stripe_00000098203216931794057440000012868106894525051798_" class="st0" d="M880.5,439.6c0.6,3.8,1.1,7.4,1.6,10.5
					c5.5,35.9-6.3,59.8-14.2,76.3c21-14.9,35.2-43.2,42.4-64.8C901.7,454.7,889.9,446.6,880.5,439.6z"/>
				<path id="stripe_II_00000085940036760427402640000009019817517437703603_" class="st0" d="M583,424c-14.7,3-38.9,10.3-56.4,22.4
					c12.2,6.6,72.5,42.8,121.8,64.4c0.4-0.2,3.1-4.7,4.4-6.5C625.7,482.7,597,451.8,583,424z"/>
			</g>
			<g id="head_00000047049335436912488650000003765352686002324381_">
				<path id="ear_00000178197939420784610540000003411551269769026992_" class="st0" d="M622.8,280.3c0,0-33.5,9.1-19.9,37.7
					c9.4,19.8,27.3,12.8,38,6.8"/>
				<path id="face_00000061431959541718425320000014986479682183578765_" class="st0" d="M631.7,285.7l10.5-3.5
					c6.9,4.2,29.9,32.7,37.2,46.8c0,0,33.6-21.8,86.2-35.8c0,0,28.6-6.5,41-6c-3.6-28.9-11-65.8-24-98.7c-19.3-49-79.1-30-87.8-27.1
					c-93.3,31.7-63.3,124.1-63.3,124.1L631.7,285.7z"/>
				<path id="beard_00000125578611225842343580000006196915032158372287_" class="st0" d="M736.7,406.7c-11.2,0-21.9-1.9-30.3-5.2
					c-27.2-10.8-33-17.7-42.8-34.1c-9.8-16.4-40.4-78.8-40.4-78.8l19.1-6.4c6.9,4.2,29.9,32.7,37.2,46.8c0,0,33.6-21.8,86.2-35.8
					c0,0,28.9-6.6,41.2-6c0,0,5.9,29.4,2.4,58.1"/>
				<path id="hair_00000074432004622449111710000008667176036534463414_" class="st0" d="M625.5,296.7c0,0-17.3-20-29.7-43.9
					c-11.7-22.5-6.9-50.3,12.6-66.5c16.3-13.6,31.8-10,31.8-10s-28-28.5-5.9-65.5c7.8-13.1,20.7-22.3,35.5-25.6
					c36.3-7.9,55,19.7,55,19.7s20.8-80.5,110.4-58.3c9,2.2,21,11.8,27.2,18.6c38.1,41.6-33.7,120.1-77.3,135.8
					c-47.9,17.3-78.8,16.3-97.6,8.2C700.9,213.4,701.4,289.8,625.5,296.7z"/>
				<polyline id="nose_00000102537211503295278580000005434119766405438625_" class="st0" points="763.8,271.9 780.7,316.9 
					763.3,316.8 				"/>
				<circle id="mouth_00000010999016353818943720000002319695783987565465_" class="st0" cx="754.5" cy="347.3" r="8.5"/>
				
					<ellipse id="eye_II_00000093170269946930331800000016855847541962170762_" transform="matrix(0.9701 -0.2426 0.2426 0.9701 -41.7157 197.7161)" class="st0" cx="782" cy="268.2" rx="4.9" ry="7.6"/>
				
					<ellipse id="eye_00000099646987568142932150000005341393994148640702_" transform="matrix(0.9701 -0.2426 0.2426 0.9701 -45.6635 186.9026)" class="st0" cx="736.1" cy="278.9" rx="4.9" ry="7.6"/>
				<path id="brow_II_00000174588993142062424000000007199600397425862315_" class="st0" d="M706.1,250.2
					c3.3-7.5,10.4-12.6,18.6-13.3"/>
				<path id="brow_00000011720772423999834200000004077631293772734908_" class="st0" d="M768.1,225.3c0,0,12.3-6.7,18.3,3.2"/>
			</g>
			<path id="laptop_00000102532161209796880750000000181428142202364590_" class="st0" d="M1301.9,550.6H951.1
				c-4.6,0-8.6,3.2-9.7,7.6l-48.8,206.4H765.5c0,0-7,36.4,34,36.4h447.9c4.6,0,8.6-3.2,9.7-7.6l54.5-230.6c1.3-5.3-2-10.7-7.4-11.9
				C1303.5,550.7,1302.7,550.6,1301.9,550.6z"/>
			<g id="code_lines_00000176007663368812322800000002980737940764749449_">
				<path class="st0" d="M1160,228.8h2.8c2.5,0,4.5,2,4.5,4.5v7.1c0,2.5-2,4.5-4.5,4.5h-2.8c-2.5,0-4.5-2-4.5-4.5v-7.1
					C1155.5,230.8,1157.5,228.8,1160,228.8z"/>
				<path class="st0" d="M1074.4,228.8h72c2.5,0,4.5,2,4.5,4.5v7.1c0,2.5-2,4.5-4.5,4.5h-72c-2.5,0-4.5-2-4.5-4.5v-7.1
					C1069.9,230.8,1072,228.8,1074.4,228.8z"/>
				<path class="st0" d="M1074.4,303.8h79.3c2.5,0,4.5,2,4.5,4.5v7.1c0,2.5-2,4.5-4.5,4.5h-79.3c-2.5,0-4.5-2-4.5-4.5v-7.1
					C1069.9,305.8,1072,303.8,1074.4,303.8z"/>
				<path class="st0" d="M1096.8,278.8h128c2.5,0,4.5,2,4.5,4.5v7.1c0,2.5-2,4.5-4.5,4.5h-128c-2.5,0-4.5-2-4.5-4.5v-7.1
					C1092.3,280.9,1094.3,278.8,1096.8,278.8z"/>
				<path class="st0" d="M1241.5,278.8h65c2.5,0,4.5,2,4.5,4.5v7.1c0,2.5-2,4.5-4.5,4.5h-65c-2.5,0-4.5-2-4.5-4.5v-7.1
					C1237,280.9,1239,278.8,1241.5,278.8z"/>
				<path class="st0" d="M1328.8,253.9h2.8c2.5,0,4.5,2,4.5,4.5v7.1c0,2.5-2,4.5-4.5,4.5h-2.8c-2.5,0-4.5-2-4.5-4.5v-7.1
					C1324.3,255.9,1326.3,253.9,1328.8,253.9z"/>
				<path class="st0" d="M1074.4,253.8h132.7c2.5,0,4.5,2,4.5,4.5v7.1c0,2.5-2,4.5-4.5,4.5h-132.7c-2.5,0-4.5-2-4.5-4.5v-7.1
					C1069.9,255.9,1072,253.8,1074.4,253.8z"/>
				<path class="st0" d="M1177,228.8h72c2.5,0,4.5,2,4.5,4.5v7.1c0,2.5-2,4.5-4.5,4.5h-72c-2.5,0-4.5-2-4.5-4.5v-7.1
					C1172.5,230.8,1174.5,228.8,1177,228.8z"/>
				<path class="st0" d="M1222.5,253.8h90.9c2.5,0,4.5,2,4.5,4.5v7.2c0,2.5-2,4.5-4.5,4.5h-90.9c-2.5,0-4.5-2-4.5-4.5v-7.2
					C1218,255.8,1220,253.8,1222.5,253.8z"/>
			</g>
			<g id="code_lines-2_00000057135200693171487200000007713156253421710985_">
				<path class="st0" d="M1074.4,390.7h72c2.5,0,4.5,2,4.5,4.5v7.1c0,2.5-2,4.5-4.5,4.5h-72c-2.5,0-4.5-2-4.5-4.5v-7.1
					C1069.9,392.7,1072,390.7,1074.4,390.7z"/>
				<path class="st0" d="M1074.4,465.6h79.3c2.5,0,4.5,2,4.5,4.5v7.1c0,2.5-2,4.5-4.5,4.5h-79.3c-2.5,0-4.5-2-4.5-4.5v-7.1
					C1069.9,467.6,1072,465.6,1074.4,465.6z"/>
				<path class="st0" d="M1096.8,440.7h128c2.5,0,4.5,2,4.5,4.5v7.1c0,2.5-2,4.5-4.5,4.5h-128c-2.5,0-4.5-2-4.5-4.5v-7.1
					C1092.3,442.7,1094.3,440.7,1096.8,440.7z"/>
				<path class="st0" d="M1241.5,440.7h65c2.5,0,4.5,2,4.5,4.5v7.1c0,2.5-2,4.5-4.5,4.5h-65c-2.5,0-4.5-2-4.5-4.5v-7.1
					C1237,442.7,1239,440.7,1241.5,440.7z"/>
				<path class="st0" d="M1328.8,415.7h2.8c2.5,0,4.5,2,4.5,4.5v7.1c0,2.5-2,4.5-4.5,4.5h-2.8c-2.5,0-4.5-2-4.5-4.5v-7.1
					C1324.3,417.7,1326.3,415.7,1328.8,415.7z"/>
				<path class="st0" d="M1349.4,390.7h2.8c2.5,0,4.5,2,4.5,4.5v7.1c0,2.5-2,4.5-4.5,4.5h-2.8c-2.5,0-4.5-2-4.5-4.5v-7.1
					C1344.9,392.7,1346.9,390.7,1349.4,390.7z"/>
				<path class="st0" d="M1074.4,415.7h132.7c2.5,0,4.5,2,4.5,4.5v7.1c0,2.5-2,4.5-4.5,4.5h-132.7c-2.5,0-4.5-2-4.5-4.5v-7.1
					C1069.9,417.7,1072,415.7,1074.4,415.7z"/>
				<path class="st0" d="M1160,390.7h89c2.5,0,4.5,2,4.5,4.5v7.1c0,2.5-2,4.5-4.5,4.5h-89c-2.5,0-4.5-2-4.5-4.5v-7.1
					C1155.5,392.7,1157.5,390.7,1160,390.7z"/>
				<path class="st0" d="M1264.2,390.7h72c2.5,0,4.5,2,4.5,4.5v7.1c0,2.5-2,4.5-4.5,4.5h-72c-2.5,0-4.5-2-4.5-4.5v-7.1
					C1259.7,392.7,1261.7,390.7,1264.2,390.7z"/>
				<path class="st0" d="M1160,366.5h2.8c2.5,0,4.5,2,4.5,4.5v7.1c0,2.5-2,4.5-4.5,4.5h-2.8c-2.5,0-4.5-2-4.5-4.5V371
					C1155.5,368.5,1157.5,366.5,1160,366.5z"/>
				<path class="st0" d="M1074.4,366.5h72c2.5,0,4.5,2,4.5,4.5v7.1c0,2.5-2,4.5-4.5,4.5h-72c-2.5,0-4.5-2-4.5-4.5V371
					C1069.9,368.5,1072,366.5,1074.4,366.5z"/>
				<path class="st0" d="M1177,366.5h72c2.5,0,4.5,2,4.5,4.5v7.1c0,2.5-2,4.5-4.5,4.5h-72c-2.5,0-4.5-2-4.5-4.5V371
					C1172.5,368.5,1174.5,366.5,1177,366.5z"/>
				<path class="st0" d="M1222.5,415.6h90.9c2.5,0,4.5,2,4.5,4.5v7.2c0,2.5-2,4.5-4.5,4.5h-90.9c-2.5,0-4.5-2-4.5-4.5v-7.2
					C1218,417.6,1220,415.6,1222.5,415.6z"/>
			</g>
			<g id="mug_00000113327632216060257040000010849047724417075871_">
				<path id="handle_00000139256335220386502830000008380965709708796070_" class="st0" d="M1419.5,706.3c2-0.7,4-1.1,6.1-1.3
					c13-0.9,24.2,8.8,25.2,21.8c0.9,13-8.8,24.2-21.8,25.2c-1.8,0.1-3.6,0.1-5.3-0.2"/>
				
					<line id="spoon_00000001660751525785292880000002632785746046977664_" class="st0" x1="1362.8" y1="709.3" x2="1329.2" y2="668.3"/>
				<path id="mug-2_00000054964393370240352980000000146639582937558932_" class="st0" d="M1324.3,696.6V774
					c0,14.9,12.1,27.1,27.1,27.1h45.7c14.9,0,27.1-12.1,27.1-27.1v-77.4H1324.3z M1364.6,753.3c0.6,0.3,0.9,0.9,0.9,1.6
					c0,1-0.8,1.8-1.8,1.8c-0.3,0-0.6-0.1-0.9-0.2l-18-10.8c-0.9-0.4-1.3-1.5-0.9-2.4c0.2-0.4,0.5-0.7,0.9-0.9l18-10.8
					c0.3-0.2,0.6-0.2,0.9-0.2c1,0,1.8,0.8,1.8,1.8c0,0.7-0.3,1.3-0.9,1.6l-15.5,9.3L1364.6,753.3z M1387.2,726.6l-14.5,36.3
					c-0.1,0.2-0.2,0.4-0.4,0.5c-0.3,0.3-0.8,0.5-1.3,0.5c-1,0-1.8-0.8-1.8-1.8c0-0.3,0.1-0.5,0.2-0.8l14.5-36.3
					c0.1-0.2,0.2-0.4,0.4-0.5c0.3-0.3,0.8-0.5,1.3-0.5c1,0,1.8,0.8,1.8,1.8C1387.4,726.1,1387.3,726.4,1387.2,726.6L1387.2,726.6z
					 M1411.8,745.6l-18,10.8c-0.3,0.2-0.6,0.2-0.9,0.2c-1,0-1.8-0.8-1.8-1.8c0-0.7,0.3-1.3,0.9-1.6l15.5-9.3l-15.5-9.3
					c-0.6-0.3-0.9-0.9-0.9-1.6c0-0.5,0.2-0.9,0.5-1.3c0.3-0.3,0.8-0.5,1.3-0.5c0.3,0,0.6,0.1,0.9,0.2l18,10.8
					c0.9,0.4,1.3,1.5,0.9,2.4C1412.5,745.1,1412.2,745.4,1411.8,745.6L1411.8,745.6z"/>
			</g>
			<g id="tea_00000089531812661359694630000006304578437472537731_">
				<path id="handle-2_00000075137507844544682110000005594770454931970194_" class="st0" d="M301.5,751.9c-13,1-24.2-8.8-25.2-21.7
					c-1-13,8.8-24.2,21.7-25.2c1.4-0.1,2.9-0.1,4.3,0.1"/>
				<path id="ug_00000029011215057212786720000007638422073608241581_" class="st0" d="M298.5,696.6V774c0,14.9,12.1,27.1,27.1,27.1
					h45.7c14.9,0,27.1-12.1,27.1-27.1v-77.4H298.5z M338.8,753.3c0.6,0.3,0.9,0.9,0.9,1.6c0,1-0.8,1.8-1.8,1.8
					c-0.3,0-0.6-0.1-0.9-0.2l-18-10.8c-0.9-0.4-1.3-1.5-0.9-2.4c0.2-0.4,0.5-0.7,0.9-0.9l18-10.8c0.3-0.2,0.6-0.2,0.9-0.2
					c1,0,1.8,0.8,1.8,1.8c0,0.7-0.3,1.3-0.9,1.6l-15.5,9.3L338.8,753.3z M376.9,745.6l-18,10.8c-0.3,0.2-0.6,0.2-0.9,0.2
					c-0.5,0-0.9-0.2-1.3-0.5c-0.3-0.3-0.5-0.8-0.5-1.3c0-0.7,0.3-1.3,0.9-1.6l15.5-9.3l-15.5-9.3c-0.6-0.3-0.9-0.9-0.9-1.6
					c0-1,0.8-1.8,1.8-1.8c0.3,0,0.6,0.1,0.9,0.2l18,10.8c0.9,0.4,1.3,1.5,0.9,2.4C377.6,745.1,377.3,745.4,376.9,745.6L376.9,745.6z
					"/>
			</g>
			<g id="soda_00000153665367198362422230000015674056932640776591_">
				<line id="line_00000182501839589190959630000000318949402518950061_" class="st0" x1="465.8" y1="665.4" x2="453.5" y2="643"/>
				
					<line id="line-2_00000131369743364416258340000005272868082198709156_" class="st0" x1="438.5" y1="667.8" x2="506.8" y2="667.8"/>
				<g id="can_00000167383859620137688700000000454274489374693778_">
					<path class="st0" d="M497.4,740.7c-2.1-2.1-5.4-2.1-7.5,0c-2.1,2.1-2.1,5.4,0,7.5c2.1,2.1,5.4,2.1,7.5,0c1-1,1.6-2.4,1.6-3.8
						C498.9,743,498.4,741.7,497.4,740.7z"/>
					<path class="st0" d="M493.6,732.8c2.9,0,5.3-2.3,5.3-5.3c0-2.9-2.3-5.3-5.3-5.3c-2.9,0-5.3,2.3-5.3,5.3c0,1.4,0.5,2.8,1.6,3.8
						C490.9,732.2,492.2,732.8,493.6,732.8z"/>
					<path class="st0" d="M497.4,765.1c2.1-2.1,2.1-5.4,0-7.5c-2.1-2.1-5.4-2.1-7.5,0c-2.1,2.1-2.1,5.4,0,7.5c1,1,2.4,1.6,3.8,1.6
						C495,766.7,496.4,766.1,497.4,765.1z"/>
					<path class="st0" d="M513.6,684.1l-12-15.6h-57.8l-12,15.6c-1.1,1.4-1.8,3.2-1.8,5.1v95c0.1,3.1,1.8,5.9,4.5,7.4
						c3.7,2.3,8.4,5.9,8.8,9.3h58.9c0.3-3.4,5.1-7,8.8-9.3c2.7-1.5,4.4-4.4,4.4-7.5v-95C515.3,687.3,514.7,685.6,513.6,684.1z
						 M488.5,702.3l6.3-10.5c0.2-0.3,0.5-0.6,0.9-0.6c0.4,0,0.8,0.2,1,0.6l6.3,10.5c0.1,0.2,0.1,0.3,0.1,0.5c0,0.3-0.1,0.5-0.3,0.7
						c-0.2,0.2-0.5,0.3-0.7,0.3c-0.4,0-0.7-0.2-0.9-0.5l-5.4-9l-5.4,9c-0.2,0.3-0.5,0.5-0.9,0.5c-0.3,0-0.6-0.1-0.7-0.3
						c-0.2-0.2-0.3-0.5-0.3-0.7C488.3,702.7,488.4,702.5,488.5,702.3L488.5,702.3z M488.9,706.3c0.2-0.1,0.4-0.2,0.6-0.2
						c0.3,0,0.6,0.1,0.7,0.3c0.2,0.2,0.3,0.5,0.3,0.7c0,0.3-0.1,0.5-0.3,0.7l-0.4,0.4c-1,1-1.6,2.3-1.6,3.7
						c-0.1,1.3,0.4,2.6,1.4,3.5c0.3,0.2,0.6,0.3,0.9,0.3c0.4,0,0.7-0.3,0.8-0.6l2.2-6.5c0.2-0.6,0.5-1.2,0.9-1.7
						c0.6-0.6,1.4-0.9,2.2-0.9c0.9,0,1.7,0.3,2.3,1c1.3,1.3,2,3.1,1.9,5c0,2.2-1,4.3-2.7,5.7c-0.2,0.1-0.4,0.2-0.6,0.2
						c-0.6,0-1.1-0.5-1.1-1c0,0,0,0,0,0c0-0.3,0.1-0.5,0.3-0.7l0.4-0.4c1-1,1.6-2.3,1.5-3.7c0.1-1.3-0.4-2.6-1.4-3.5
						c-0.3-0.2-0.6-0.3-0.9-0.3c-0.4,0-0.7,0.3-0.8,0.6l-2.2,6.5c-0.2,0.6-0.5,1.2-0.9,1.7c-0.6,0.6-1.4,0.9-2.2,0.9
						c-0.9,0-1.7-0.3-2.3-1c-1.3-1.3-2-3.1-1.9-5C486.2,709.8,487.2,707.7,488.9,706.3L488.9,706.3z M488.4,722.3
						c2.9-2.9,7.6-2.9,10.5,0c2.9,2.9,2.9,7.6,0,10.5c-2.9,2.9-7.6,2.9-10.5,0c-1.4-1.4-2.2-3.3-2.2-5.3
						C486.2,725.5,487,723.6,488.4,722.3z M486.5,768.5c-0.4-0.4-0.4-1.1,0-1.5c0.2-0.2,0.5-0.3,0.7-0.3h1.2
						c-2.9-2.9-3-7.6-0.1-10.5c2.9-2.9,7.6-3,10.5-0.1c2.9,2.9,3,7.6,0.1,10.5c-1.4,1.4-3.3,2.2-5.3,2.2h-6.3
						C487,768.8,486.7,768.7,486.5,768.5z M503,772.5l-6.3,10.5c-0.2,0.4-0.6,0.6-1,0.6c-0.4,0-0.7-0.2-0.9-0.6l-6.3-10.5
						c-0.1-0.2-0.1-0.3-0.1-0.5c0-0.3,0.1-0.5,0.3-0.7c0.2-0.2,0.5-0.3,0.7-0.3c0.4,0,0.7,0.2,0.9,0.5l5.4,9l5.4-9
						c0.2-0.3,0.5-0.5,0.9-0.5c0.6,0,1.1,0.5,1.1,1.1C503.1,772.2,503.1,772.3,503,772.5z M507.1,751.5c-0.2,0.2-0.5,0.3-0.7,0.3
						h-12.7c-4.1,0-7.4-3.3-7.4-7.4c0-4.1,3.3-7.4,7.4-7.4c4.1,0,7.4,3.3,7.4,7.4c0,2-0.8,3.8-2.2,5.2l-0.1,0.1h7.5
						c0.3,0,0.6,0.1,0.7,0.3c0.2,0.2,0.3,0.5,0.3,0.7C507.4,751.1,507.3,751.4,507.1,751.5L507.1,751.5z"/>
				</g>
			</g>
			<g id="hand_00000141451678943675079030000001083635822613707663_">
				<path id="thumb_00000032643802994301397050000007943883043408317873_" class="st0" d="M737.3,415.5c0.4-11.7,0.2-30-4-38
					c-6.6-12.7-0.4-26.3,13-12.4c7.7,7.9,11.4,18.4,13.3,26"/>
				<circle class="st0" cx="850.9" cy="373.3" r="23.5"/>
				<path id="sleeve_00000131342049555169561940000013398863297956899246_" class="st0" d="M698.5,803.8
					c68.8-5.1,82.4-238.4,84.8-246.4c4.8-15.7-10.2-19.4-8.2-31.9c2-12.5,0.4-18,0.4-18c-32.3-5.3-63.6-45.8-63.6-45.8
					s-3.2,2.4-12.5,10.3c-9.2,7.9-19.6-4.2-30.1,7.9c-7,8.1-82.9,135.5-82.9,135.5"/>
				<path id="welt_00000096739219199817989770000014907133811376665499_" class="st0" d="M777.9,525.2c2.2-13.4,3.1-19.3,3.1-19.3
					c-34.4-5.3-69.8-48.6-69.8-48.6s-3.5,2.6-13.4,11.2c-4,3.5-8.1,3.4-12.4,3c-3,37.6,64.5,71.1,96.4,72.7
					C779.7,535.2,776.2,535.4,777.9,525.2z"/>
				<path id="line-3_00000183947699315335278130000015149827678726494623_" class="st0" d="M541.8,593.9c0,0,40.7-35.1,64.3-13"/>
				<path id="hand-2_00000147933320535080794800000011828622322873805499_" class="st0" d="M697.8,490l68.2,39.6l34.1-80.7
					c32.9,0.1,32.8-17.8,25.9-18.4c-6.9-0.6-40,4-40,4s1.1-2.4,28-7.5c26.9-5.1,21.8-20.1,16.1-20.5c-5.8-0.4-48.5,10.3-48.5,10.3
					l36.7-13.1c13.1-4.2,13.5-16.8,6.7-18.6c-4.5-1.2-28.6,6.1-47.6,12.7c0,0,22.9-11.7,33.7-18.8c10.9-7.1,3.3-16.3-3.1-15.8
					c-6.3,0.6-50.4,30-58.8,37.3C740.8,407.9,697.8,490,697.8,490z"/>
			</g>
			<g id="coffe_00000065063916156371225510000002612388124675112612_">
				<path id="handle-3_00000134232583619531210910000008687498049968131236_" class="st0" d="M653.4,705.6c1.2-0.3,2.5-0.5,3.8-0.6
					c13-0.9,24.2,8.8,25.2,21.8s-8.8,24.2-21.8,25.2c-2.9,0.2-5.8-0.1-8.6-1"/>
				<path id="mug-3_00000003814781865702588810000001557313166046899587_" class="st0" d="M555.9,696.6V774
					c0,14.9,12.1,27.1,27.1,27.1h45.7c14.9,0,27.1-12.1,27.1-27.1v-77.4H555.9z M596.2,753.3c0.6,0.3,0.9,0.9,0.9,1.6
					c0,1-0.8,1.8-1.8,1.8c-0.3,0-0.6-0.1-0.9-0.2l-18-10.8c-0.9-0.4-1.3-1.5-0.9-2.4c0.2-0.4,0.5-0.7,0.9-0.9l18-10.8
					c0.3-0.2,0.6-0.2,0.9-0.2c0.5,0,0.9,0.2,1.3,0.5c0.3,0.3,0.5,0.8,0.5,1.3c0,0.7-0.3,1.3-0.9,1.6l-15.5,9.3L596.2,753.3z
					 M618.8,726.6l-14.5,36.3c-0.1,0.2-0.2,0.4-0.4,0.5c-0.3,0.3-0.8,0.5-1.3,0.5c-1,0-1.8-0.8-1.8-1.8c0-0.3,0.1-0.5,0.2-0.8
					l14.5-36.3c0.1-0.2,0.2-0.4,0.4-0.5c0.3-0.3,0.8-0.5,1.3-0.5c1,0,1.8,0.8,1.8,1.8C618.9,726.1,618.9,726.4,618.8,726.6
					L618.8,726.6z M643.4,745.6l-18,10.8c-0.3,0.2-0.6,0.2-0.9,0.2c-1,0-1.8-0.8-1.8-1.8c0-0.7,0.3-1.3,0.9-1.6l15.5-9.3l-15.5-9.3
					c-0.6-0.3-0.9-0.9-0.9-1.6c0-0.5,0.2-0.9,0.5-1.3c0.3-0.3,0.8-0.5,1.3-0.5c0.3,0,0.6,0.1,0.9,0.2l18,10.8
					c0.9,0.4,1.3,1.5,0.9,2.4C644.1,745.1,643.8,745.4,643.4,745.6L643.4,745.6z"/>
			</g>
			<line id="line-4_00000095341161914032427640000007240913959044572334_" class="st0" x1="83" y1="803.4" x2="1559.5" y2="803.4"/>
			<path class="st0" d="M850.6,419l-5-77.3l-99.6,6.5l3.4,52.3c8.9-7.6,52.3-36.6,58.6-37.2c6.3-0.6,13.9,8.7,3.1,15.8
				c-10.9,7.1-33.7,18.8-33.7,18.8c19-6.7,43.1-13.9,47.6-12.7c6.8,1.8,6.4,14.4-6.7,18.6l-36.7,13.1c0,0,42.7-10.7,48.5-10.3
				c5.8,0.4,10.8,15.4-16.1,20.5c-26.9,5.1-28,7.5-28,7.5s33.1-4.7,40-4c6.9,0.6,7,18.5-25.9,18.4l-0.2,0.4l25.4-1.6
				C840.2,446.8,851.5,433.9,850.6,419C850.6,419,850.6,419,850.6,419z"/>
		</g>
	</g>
	<path class="st0" d="M1579.2,825.2H63.3c-22.3,0-40.5-18.1-40.5-40.5v-723c0-22.3,18.1-40.5,40.5-40.5h1515.8
		c22.3,0,40.5,18.1,40.5,40.5v723C1619.6,807.1,1601.5,825.2,1579.2,825.2z"/>
</g>
<g id="Layer_2_00000046305128842851168410000013637734889480808084_">
	<g id="outline">
		<g id="developer">
			<path id="chair" class="st1" d="M367,702.9l-22-175.6c-8.7-69.1,40.6-125.2,110.1-125.2h116.3"/>
			<g id="body">
				<path id="hoodie" class="st1" d="M644.2,399.1l14.4-20.3l-3.8-27.3c-1-1.9-2.1-3.9-3.1-6c-78.8,11.7-88.4,44.8-70.7,80.1
					C450.2,451.1,393.3,651.8,427.3,747c9.7,27.1,17.5,54.1,46.3,54.4"/>
				<g id="tshirt">
					<path class="st2" d="M685.3,472c0-0.2,0-0.3,0-0.5c4.3,0.4,8.4,0.4,12.4-3c9.9-8.6,13.4-11.2,13.4-11.2s0.9,1.1,2.5,2.9
						c2-3.6,4-7.4,6.1-11.1c-42.8-33.2-75.6-50-75.6-50l-2.4-1.7L626,416.5C626,416.5,651.6,434.2,685.3,472z"/>
					<path class="st2" d="M892.4,783.5c0,0-68.6-184.4-59.8-241.6c4.8-31.2-2.7-66.5-13-93.8l-19.6,1.3L776.4,505
						c1.5,0.4,3.1,0.7,4.6,0.9c0,0-0.9,5.8-3.1,19.3c-1.5,8.9,1.1,9.9,3.1,16.1c2.6,4.2,4.6,8.9,2.4,16.1c-0.7,2.4-2.4,24.7-6.3,55
						c7.2,15.3,14.1,31.5,20.6,48.7c41.6,110.9,37.3,123,37.3,123L892.4,783.5z"/>
				</g>
				<path id="hoodie-2" class="st1" d="M1124.6,800c-4.9-32.5-40.1-206.8-241.5-359.7c-4.5-27.3-15.9-70.3-74.6-90.4"/>
				<path id="string" class="st3" d="M848.9,532.3c0,0-2.2,58.9,10.7,101.2"/>
				<path id="stripe" class="st4" d="M880.5,439.6c0.6,3.8,1.1,7.4,1.6,10.5c5.5,35.9-6.3,59.8-14.2,76.3
					c21-14.9,35.2-43.2,42.4-64.8C901.7,454.7,889.9,446.6,880.5,439.6z"/>
				<path id="stripe_II" class="st4" d="M583,424c-14.7,3-38.9,10.3-56.4,22.4c12.2,6.6,72.5,42.8,121.8,64.4
					c0.4-0.2,3.1-4.7,4.4-6.5C625.7,482.7,597,451.8,583,424z"/>
			</g>
			<g id="head">
				<path id="ear" class="st1" d="M622.8,280.3c0,0-33.5,9.1-19.9,37.7c9.4,19.8,27.3,12.8,38,6.8"/>
				<path id="face" class="st1" d="M631.7,285.7l10.5-3.5c6.9,4.2,29.9,32.7,37.2,46.8c0,0,33.6-21.8,86.2-35.8c0,0,28.6-6.5,41-6
					c-3.6-28.9-11-65.8-24-98.7c-19.3-49-79.1-30-87.8-27.1c-93.3,31.7-63.3,124.1-63.3,124.1L631.7,285.7z"/>
				<path id="beard" class="st1" d="M736.7,406.7c-11.2,0-21.9-1.9-30.3-5.2c-27.2-10.8-33-17.7-42.8-34.1
					c-9.8-16.4-40.4-78.8-40.4-78.8l19.1-6.4c6.9,4.2,29.9,32.7,37.2,46.8c0,0,33.6-21.8,86.2-35.8c0,0,28.9-6.6,41.2-6
					c0,0,5.9,29.4,2.4,58.1"/>
				<path id="hair" class="st4" d="M625.5,296.7c0,0-17.3-20-29.7-43.9c-11.7-22.5-6.9-50.3,12.6-66.5c16.3-13.6,31.8-10,31.8-10
					s-28-28.5-5.9-65.5c7.8-13.1,20.7-22.3,35.5-25.6c36.3-7.9,55,19.7,55,19.7s20.8-80.5,110.4-58.3c9,2.2,21,11.8,27.2,18.6
					c38.1,41.6-33.7,120.1-77.3,135.8c-47.9,17.3-78.8,16.3-97.6,8.2C700.9,213.4,701.4,289.8,625.5,296.7z"/>
				<polyline id="nose" class="st3" points="763.8,271.9 780.7,316.9 763.3,316.8 				"/>
				<circle id="mouth" class="st4" cx="754.5" cy="347.3" r="8.5"/>
				
					<ellipse id="eye_II" transform="matrix(0.9701 -0.2426 0.2426 0.9701 -41.7157 197.7161)" class="st4" cx="782" cy="268.2" rx="4.9" ry="7.6"/>
				
					<ellipse id="eye" transform="matrix(0.9701 -0.2426 0.2426 0.9701 -45.6635 186.9026)" class="st4" cx="736.1" cy="278.9" rx="4.9" ry="7.6"/>
				<path id="brow_II" class="st3" d="M706.1,250.2c3.3-7.5,10.4-12.6,18.6-13.3"/>
				<path id="brow" class="st3" d="M768.1,225.3c0,0,12.3-6.7,18.3,3.2"/>
			</g>
			<path id="laptop" class="st4" d="M1301.9,550.6H951.1c-4.6,0-8.6,3.2-9.7,7.6l-48.8,206.4H765.5c0,0-7,36.4,34,36.4h447.9
				c4.6,0,8.6-3.2,9.7-7.6l54.5-230.6c1.3-5.3-2-10.7-7.4-11.9C1303.5,550.7,1302.7,550.6,1301.9,550.6z"/>
			<g id="code_lines">
				<path class="st2" d="M1160,228.8h2.8c2.5,0,4.5,2,4.5,4.5v7.1c0,2.5-2,4.5-4.5,4.5h-2.8c-2.5,0-4.5-2-4.5-4.5v-7.1
					C1155.5,230.8,1157.5,228.8,1160,228.8z"/>
				<path class="st4" d="M1074.4,228.8h72c2.5,0,4.5,2,4.5,4.5v7.1c0,2.5-2,4.5-4.5,4.5h-72c-2.5,0-4.5-2-4.5-4.5v-7.1
					C1069.9,230.8,1072,228.8,1074.4,228.8z"/>
				<path class="st4" d="M1074.4,303.8h79.3c2.5,0,4.5,2,4.5,4.5v7.1c0,2.5-2,4.5-4.5,4.5h-79.3c-2.5,0-4.5-2-4.5-4.5v-7.1
					C1069.9,305.8,1072,303.8,1074.4,303.8z"/>
				<path class="st2" d="M1096.8,278.8h128c2.5,0,4.5,2,4.5,4.5v7.1c0,2.5-2,4.5-4.5,4.5h-128c-2.5,0-4.5-2-4.5-4.5v-7.1
					C1092.3,280.9,1094.3,278.8,1096.8,278.8z"/>
				<path class="st2" d="M1241.5,278.8h65c2.5,0,4.5,2,4.5,4.5v7.1c0,2.5-2,4.5-4.5,4.5h-65c-2.5,0-4.5-2-4.5-4.5v-7.1
					C1237,280.9,1239,278.8,1241.5,278.8z"/>
				<path class="st4" d="M1328.8,253.9h2.8c2.5,0,4.5,2,4.5,4.5v7.1c0,2.5-2,4.5-4.5,4.5h-2.8c-2.5,0-4.5-2-4.5-4.5v-7.1
					C1324.3,255.9,1326.3,253.9,1328.8,253.9z"/>
				<path class="st4" d="M1074.4,253.8h132.7c2.5,0,4.5,2,4.5,4.5v7.1c0,2.5-2,4.5-4.5,4.5h-132.7c-2.5,0-4.5-2-4.5-4.5v-7.1
					C1069.9,255.9,1072,253.8,1074.4,253.8z"/>
				<path class="st4" d="M1177,228.8h72c2.5,0,4.5,2,4.5,4.5v7.1c0,2.5-2,4.5-4.5,4.5h-72c-2.5,0-4.5-2-4.5-4.5v-7.1
					C1172.5,230.8,1174.5,228.8,1177,228.8z"/>
				<path class="st2" d="M1222.5,253.8h90.9c2.5,0,4.5,2,4.5,4.5v7.2c0,2.5-2,4.5-4.5,4.5h-90.9c-2.5,0-4.5-2-4.5-4.5v-7.2
					C1218,255.8,1220,253.8,1222.5,253.8z"/>
			</g>
			<g id="code_lines-2">
				<path class="st4" d="M1074.4,390.7h72c2.5,0,4.5,2,4.5,4.5v7.1c0,2.5-2,4.5-4.5,4.5h-72c-2.5,0-4.5-2-4.5-4.5v-7.1
					C1069.9,392.7,1072,390.7,1074.4,390.7z"/>
				<path class="st4" d="M1074.4,465.6h79.3c2.5,0,4.5,2,4.5,4.5v7.1c0,2.5-2,4.5-4.5,4.5h-79.3c-2.5,0-4.5-2-4.5-4.5v-7.1
					C1069.9,467.6,1072,465.6,1074.4,465.6z"/>
				<path class="st2" d="M1096.8,440.7h128c2.5,0,4.5,2,4.5,4.5v7.1c0,2.5-2,4.5-4.5,4.5h-128c-2.5,0-4.5-2-4.5-4.5v-7.1
					C1092.3,442.7,1094.3,440.7,1096.8,440.7z"/>
				<path class="st2" d="M1241.5,440.7h65c2.5,0,4.5,2,4.5,4.5v7.1c0,2.5-2,4.5-4.5,4.5h-65c-2.5,0-4.5-2-4.5-4.5v-7.1
					C1237,442.7,1239,440.7,1241.5,440.7z"/>
				<path class="st4" d="M1328.8,415.7h2.8c2.5,0,4.5,2,4.5,4.5v7.1c0,2.5-2,4.5-4.5,4.5h-2.8c-2.5,0-4.5-2-4.5-4.5v-7.1
					C1324.3,417.7,1326.3,415.7,1328.8,415.7z"/>
				<path class="st4" d="M1349.4,390.7h2.8c2.5,0,4.5,2,4.5,4.5v7.1c0,2.5-2,4.5-4.5,4.5h-2.8c-2.5,0-4.5-2-4.5-4.5v-7.1
					C1344.9,392.7,1346.9,390.7,1349.4,390.7z"/>
				<path class="st4" d="M1074.4,415.7h132.7c2.5,0,4.5,2,4.5,4.5v7.1c0,2.5-2,4.5-4.5,4.5h-132.7c-2.5,0-4.5-2-4.5-4.5v-7.1
					C1069.9,417.7,1072,415.7,1074.4,415.7z"/>
				<path class="st2" d="M1160,390.7h89c2.5,0,4.5,2,4.5,4.5v7.1c0,2.5-2,4.5-4.5,4.5h-89c-2.5,0-4.5-2-4.5-4.5v-7.1
					C1155.5,392.7,1157.5,390.7,1160,390.7z"/>
				<path class="st2" d="M1264.2,390.7h72c2.5,0,4.5,2,4.5,4.5v7.1c0,2.5-2,4.5-4.5,4.5h-72c-2.5,0-4.5-2-4.5-4.5v-7.1
					C1259.7,392.7,1261.7,390.7,1264.2,390.7z"/>
				<path class="st2" d="M1160,366.5h2.8c2.5,0,4.5,2,4.5,4.5v7.1c0,2.5-2,4.5-4.5,4.5h-2.8c-2.5,0-4.5-2-4.5-4.5V371
					C1155.5,368.5,1157.5,366.5,1160,366.5z"/>
				<path class="st4" d="M1074.4,366.5h72c2.5,0,4.5,2,4.5,4.5v7.1c0,2.5-2,4.5-4.5,4.5h-72c-2.5,0-4.5-2-4.5-4.5V371
					C1069.9,368.5,1072,366.5,1074.4,366.5z"/>
				<path class="st4" d="M1177,366.5h72c2.5,0,4.5,2,4.5,4.5v7.1c0,2.5-2,4.5-4.5,4.5h-72c-2.5,0-4.5-2-4.5-4.5V371
					C1172.5,368.5,1174.5,366.5,1177,366.5z"/>
				<path class="st2" d="M1222.5,415.6h90.9c2.5,0,4.5,2,4.5,4.5v7.2c0,2.5-2,4.5-4.5,4.5h-90.9c-2.5,0-4.5-2-4.5-4.5v-7.2
					C1218,417.6,1220,415.6,1222.5,415.6z"/>
			</g>
			<g id="mug">
				<path id="handle" class="st1" d="M1419.5,706.3c2-0.7,4-1.1,6.1-1.3c13-0.9,24.2,8.8,25.2,21.8c0.9,13-8.8,24.2-21.8,25.2
					c-1.8,0.1-3.6,0.1-5.3-0.2"/>
				<line id="spoon" class="st1" x1="1362.8" y1="709.3" x2="1329.2" y2="668.3"/>
				<path id="mug-2" class="st4" d="M1324.3,696.6V774c0,14.9,12.1,27.1,27.1,27.1h45.7c14.9,0,27.1-12.1,27.1-27.1v-77.4H1324.3z
					 M1364.6,753.3c0.6,0.3,0.9,0.9,0.9,1.6c0,1-0.8,1.8-1.8,1.8c-0.3,0-0.6-0.1-0.9-0.2l-18-10.8c-0.9-0.4-1.3-1.5-0.9-2.4
					c0.2-0.4,0.5-0.7,0.9-0.9l18-10.8c0.3-0.2,0.6-0.2,0.9-0.2c1,0,1.8,0.8,1.8,1.8c0,0.7-0.3,1.3-0.9,1.6l-15.5,9.3L1364.6,753.3z
					 M1387.2,726.6l-14.5,36.3c-0.1,0.2-0.2,0.4-0.4,0.5c-0.3,0.3-0.8,0.5-1.3,0.5c-1,0-1.8-0.8-1.8-1.8c0-0.3,0.1-0.5,0.2-0.8
					l14.5-36.3c0.1-0.2,0.2-0.4,0.4-0.5c0.3-0.3,0.8-0.5,1.3-0.5c1,0,1.8,0.8,1.8,1.8C1387.4,726.1,1387.3,726.4,1387.2,726.6
					L1387.2,726.6z M1411.8,745.6l-18,10.8c-0.3,0.2-0.6,0.2-0.9,0.2c-1,0-1.8-0.8-1.8-1.8c0-0.7,0.3-1.3,0.9-1.6l15.5-9.3
					l-15.5-9.3c-0.6-0.3-0.9-0.9-0.9-1.6c0-0.5,0.2-0.9,0.5-1.3c0.3-0.3,0.8-0.5,1.3-0.5c0.3,0,0.6,0.1,0.9,0.2l18,10.8
					c0.9,0.4,1.3,1.5,0.9,2.4C1412.5,745.1,1412.2,745.4,1411.8,745.6L1411.8,745.6z"/>
			</g>
			<g id="tea">
				<path id="handle-2" class="st1" d="M301.5,751.9c-13,1-24.2-8.8-25.2-21.7c-1-13,8.8-24.2,21.7-25.2c1.4-0.1,2.9-0.1,4.3,0.1"/>
				<path id="ug" class="st4" d="M298.5,696.6V774c0,14.9,12.1,27.1,27.1,27.1h45.7c14.9,0,27.1-12.1,27.1-27.1v-77.4H298.5z
					 M338.8,753.3c0.6,0.3,0.9,0.9,0.9,1.6c0,1-0.8,1.8-1.8,1.8c-0.3,0-0.6-0.1-0.9-0.2l-18-10.8c-0.9-0.4-1.3-1.5-0.9-2.4
					c0.2-0.4,0.5-0.7,0.9-0.9l18-10.8c0.3-0.2,0.6-0.2,0.9-0.2c1,0,1.8,0.8,1.8,1.8c0,0.7-0.3,1.3-0.9,1.6l-15.5,9.3L338.8,753.3z
					 M376.9,745.6l-18,10.8c-0.3,0.2-0.6,0.2-0.9,0.2c-0.5,0-0.9-0.2-1.3-0.5c-0.3-0.3-0.5-0.8-0.5-1.3c0-0.7,0.3-1.3,0.9-1.6
					l15.5-9.3l-15.5-9.3c-0.6-0.3-0.9-0.9-0.9-1.6c0-1,0.8-1.8,1.8-1.8c0.3,0,0.6,0.1,0.9,0.2l18,10.8c0.9,0.4,1.3,1.5,0.9,2.4
					C377.6,745.1,377.3,745.4,376.9,745.6L376.9,745.6z"/>
			</g>
			<g id="soda">
				<line id="line" class="st1" x1="465.8" y1="665.4" x2="453.5" y2="643"/>
				<line id="line-2" class="st1" x1="438.5" y1="667.8" x2="506.8" y2="667.8"/>
				<g id="can">
					<path class="st4" d="M497.4,740.7c-2.1-2.1-5.4-2.1-7.5,0c-2.1,2.1-2.1,5.4,0,7.5c2.1,2.1,5.4,2.1,7.5,0c1-1,1.6-2.4,1.6-3.8
						C498.9,743,498.4,741.7,497.4,740.7z"/>
					<path class="st4" d="M493.6,732.8c2.9,0,5.3-2.3,5.3-5.3c0-2.9-2.3-5.3-5.3-5.3c-2.9,0-5.3,2.3-5.3,5.3c0,1.4,0.5,2.8,1.6,3.8
						C490.9,732.2,492.2,732.8,493.6,732.8z"/>
					<path class="st4" d="M497.4,765.1c2.1-2.1,2.1-5.4,0-7.5c-2.1-2.1-5.4-2.1-7.5,0c-2.1,2.1-2.1,5.4,0,7.5c1,1,2.4,1.6,3.8,1.6
						C495,766.7,496.4,766.1,497.4,765.1z"/>
					<path class="st4" d="M513.6,684.1l-12-15.6h-57.8l-12,15.6c-1.1,1.4-1.8,3.2-1.8,5.1v95c0.1,3.1,1.8,5.9,4.5,7.4
						c3.7,2.3,8.4,5.9,8.8,9.3h58.9c0.3-3.4,5.1-7,8.8-9.3c2.7-1.5,4.4-4.4,4.4-7.5v-95C515.3,687.3,514.7,685.6,513.6,684.1z
						 M488.5,702.3l6.3-10.5c0.2-0.3,0.5-0.6,0.9-0.6c0.4,0,0.8,0.2,1,0.6l6.3,10.5c0.1,0.2,0.1,0.3,0.1,0.5c0,0.3-0.1,0.5-0.3,0.7
						c-0.2,0.2-0.5,0.3-0.7,0.3c-0.4,0-0.7-0.2-0.9-0.5l-5.4-9l-5.4,9c-0.2,0.3-0.5,0.5-0.9,0.5c-0.3,0-0.6-0.1-0.7-0.3
						c-0.2-0.2-0.3-0.5-0.3-0.7C488.3,702.7,488.4,702.5,488.5,702.3L488.5,702.3z M488.9,706.3c0.2-0.1,0.4-0.2,0.6-0.2
						c0.3,0,0.6,0.1,0.7,0.3c0.2,0.2,0.3,0.5,0.3,0.7c0,0.3-0.1,0.5-0.3,0.7l-0.4,0.4c-1,1-1.6,2.3-1.6,3.7
						c-0.1,1.3,0.4,2.6,1.4,3.5c0.3,0.2,0.6,0.3,0.9,0.3c0.4,0,0.7-0.3,0.8-0.6l2.2-6.5c0.2-0.6,0.5-1.2,0.9-1.7
						c0.6-0.6,1.4-0.9,2.2-0.9c0.9,0,1.7,0.3,2.3,1c1.3,1.3,2,3.1,1.9,5c0,2.2-1,4.3-2.7,5.7c-0.2,0.1-0.4,0.2-0.6,0.2
						c-0.6,0-1.1-0.5-1.1-1c0,0,0,0,0,0c0-0.3,0.1-0.5,0.3-0.7l0.4-0.4c1-1,1.6-2.3,1.5-3.7c0.1-1.3-0.4-2.6-1.4-3.5
						c-0.3-0.2-0.6-0.3-0.9-0.3c-0.4,0-0.7,0.3-0.8,0.6l-2.2,6.5c-0.2,0.6-0.5,1.2-0.9,1.7c-0.6,0.6-1.4,0.9-2.2,0.9
						c-0.9,0-1.7-0.3-2.3-1c-1.3-1.3-2-3.1-1.9-5C486.2,709.8,487.2,707.7,488.9,706.3L488.9,706.3z M488.4,722.3
						c2.9-2.9,7.6-2.9,10.5,0c2.9,2.9,2.9,7.6,0,10.5c-2.9,2.9-7.6,2.9-10.5,0c-1.4-1.4-2.2-3.3-2.2-5.3
						C486.2,725.5,487,723.6,488.4,722.3z M486.5,768.5c-0.4-0.4-0.4-1.1,0-1.5c0.2-0.2,0.5-0.3,0.7-0.3h1.2
						c-2.9-2.9-3-7.6-0.1-10.5c2.9-2.9,7.6-3,10.5-0.1c2.9,2.9,3,7.6,0.1,10.5c-1.4,1.4-3.3,2.2-5.3,2.2h-6.3
						C487,768.8,486.7,768.7,486.5,768.5z M503,772.5l-6.3,10.5c-0.2,0.4-0.6,0.6-1,0.6c-0.4,0-0.7-0.2-0.9-0.6l-6.3-10.5
						c-0.1-0.2-0.1-0.3-0.1-0.5c0-0.3,0.1-0.5,0.3-0.7c0.2-0.2,0.5-0.3,0.7-0.3c0.4,0,0.7,0.2,0.9,0.5l5.4,9l5.4-9
						c0.2-0.3,0.5-0.5,0.9-0.5c0.6,0,1.1,0.5,1.1,1.1C503.1,772.2,503.1,772.3,503,772.5z M507.1,751.5c-0.2,0.2-0.5,0.3-0.7,0.3
						h-12.7c-4.1,0-7.4-3.3-7.4-7.4c0-4.1,3.3-7.4,7.4-7.4c4.1,0,7.4,3.3,7.4,7.4c0,2-0.8,3.8-2.2,5.2l-0.1,0.1h7.5
						c0.3,0,0.6,0.1,0.7,0.3c0.2,0.2,0.3,0.5,0.3,0.7C507.4,751.1,507.3,751.4,507.1,751.5L507.1,751.5z"/>
				</g>
			</g>
			<g id="hand">
				<path id="thumb" class="st1" d="M737.3,415.5c0.4-11.7,0.2-30-4-38c-6.6-12.7-0.4-26.3,13-12.4c7.7,7.9,11.4,18.4,13.3,26"/>
				<circle class="st1" cx="850.9" cy="373.3" r="23.5"/>
				<path id="sleeve" class="st1" d="M698.5,803.8c68.8-5.1,82.4-238.4,84.8-246.4c4.8-15.7-10.2-19.4-8.2-31.9
					c2-12.5,0.4-18,0.4-18c-32.3-5.3-63.6-45.8-63.6-45.8s-3.2,2.4-12.5,10.3c-9.2,7.9-19.6-4.2-30.1,7.9
					c-7,8.1-82.9,135.5-82.9,135.5"/>
				<path id="welt" class="st4" d="M777.9,525.2c2.2-13.4,3.1-19.3,3.1-19.3c-34.4-5.3-69.8-48.6-69.8-48.6s-3.5,2.6-13.4,11.2
					c-4,3.5-8.1,3.4-12.4,3c-3,37.6,64.5,71.1,96.4,72.7C779.7,535.2,776.2,535.4,777.9,525.2z"/>
				<path id="line-3" class="st1" d="M541.8,593.9c0,0,40.7-35.1,64.3-13"/>
				<path id="hand-2" class="st1" d="M697.8,490l68.2,39.6l34.1-80.7c32.9,0.1,32.8-17.8,25.9-18.4c-6.9-0.6-40,4-40,4
					s1.1-2.4,28-7.5c26.9-5.1,21.8-20.1,16.1-20.5c-5.8-0.4-48.5,10.3-48.5,10.3l36.7-13.1c13.1-4.2,13.5-16.8,6.7-18.6
					c-4.5-1.2-28.6,6.1-47.6,12.7c0,0,22.9-11.7,33.7-18.8c10.9-7.1,3.3-16.3-3.1-15.8c-6.3,0.6-50.4,30-58.8,37.3
					C740.8,407.9,697.8,490,697.8,490z"/>
			</g>
			<g id="coffe">
				<path id="handle-3" class="st1" d="M653.4,705.6c1.2-0.3,2.5-0.5,3.8-0.6c13-0.9,24.2,8.8,25.2,21.8s-8.8,24.2-21.8,25.2
					c-2.9,0.2-5.8-0.1-8.6-1"/>
				<path id="mug-3" class="st4" d="M555.9,696.6V774c0,14.9,12.1,27.1,27.1,27.1h45.7c14.9,0,27.1-12.1,27.1-27.1v-77.4H555.9z
					 M596.2,753.3c0.6,0.3,0.9,0.9,0.9,1.6c0,1-0.8,1.8-1.8,1.8c-0.3,0-0.6-0.1-0.9-0.2l-18-10.8c-0.9-0.4-1.3-1.5-0.9-2.4
					c0.2-0.4,0.5-0.7,0.9-0.9l18-10.8c0.3-0.2,0.6-0.2,0.9-0.2c0.5,0,0.9,0.2,1.3,0.5c0.3,0.3,0.5,0.8,0.5,1.3
					c0,0.7-0.3,1.3-0.9,1.6l-15.5,9.3L596.2,753.3z M618.8,726.6l-14.5,36.3c-0.1,0.2-0.2,0.4-0.4,0.5c-0.3,0.3-0.8,0.5-1.3,0.5
					c-1,0-1.8-0.8-1.8-1.8c0-0.3,0.1-0.5,0.2-0.8l14.5-36.3c0.1-0.2,0.2-0.4,0.4-0.5c0.3-0.3,0.8-0.5,1.3-0.5c1,0,1.8,0.8,1.8,1.8
					C618.9,726.1,618.9,726.4,618.8,726.6L618.8,726.6z M643.4,745.6l-18,10.8c-0.3,0.2-0.6,0.2-0.9,0.2c-1,0-1.8-0.8-1.8-1.8
					c0-0.7,0.3-1.3,0.9-1.6l15.5-9.3l-15.5-9.3c-0.6-0.3-0.9-0.9-0.9-1.6c0-0.5,0.2-0.9,0.5-1.3c0.3-0.3,0.8-0.5,1.3-0.5
					c0.3,0,0.6,0.1,0.9,0.2l18,10.8c0.9,0.4,1.3,1.5,0.9,2.4C644.1,745.1,643.8,745.4,643.4,745.6L643.4,745.6z"/>
			</g>
			<line id="line-4" class="st1" x1="83" y1="803.4" x2="1559.5" y2="803.4"/>
			<path class="st4" d="M850.6,419l-5-77.3l-99.6,6.5l3.4,52.3c8.9-7.6,52.3-36.6,58.6-37.2c6.3-0.6,13.9,8.7,3.1,15.8
				c-10.9,7.1-33.7,18.8-33.7,18.8c19-6.7,43.1-13.9,47.6-12.7c6.8,1.8,6.4,14.4-6.7,18.6l-36.7,13.1c0,0,42.7-10.7,48.5-10.3
				c5.8,0.4,10.8,15.4-16.1,20.5c-26.9,5.1-28,7.5-28,7.5s33.1-4.7,40-4c6.9,0.6,7,18.5-25.9,18.4l-0.2,0.4l25.4-1.6
				C840.2,446.8,851.5,433.9,850.6,419C850.6,419,850.6,419,850.6,419z"/>
		</g>
	</g>
	<path class="st5" d="M1579.2,825.2H63.3c-22.3,0-40.5-18.1-40.5-40.5v-723c0-22.3,18.1-40.5,40.5-40.5h1515.8
		c22.3,0,40.5,18.1,40.5,40.5v723C1619.6,807.1,1601.5,825.2,1579.2,825.2z"/>
</g>
</svg>
