<svg xmlns="http://www.w3.org/2000/svg" xmlns:xlink="http://www.w3.org/1999/xlink" viewBox="0 0 1438.39 1438.39"><defs><style>.cls-1,.cls-2,.cls-27,.cls-3,.cls-33{mix-blend-mode:hard-light;}.cls-1,.cls-2,.cls-3,.cls-33,.cls-42{opacity:0.8;}.cls-1{filter:url(#luminosity-noclip);}.cls-3,.cls-32{fill:#fff;}.cls-4,.cls-42{fill:none;}.cls-5{isolation:isolate;}.cls-6{clip-path:url(#clip-path);}.cls-7{fill:#06062b;}.cls-32,.cls-34,.cls-8,.cls-9{mix-blend-mode:overlay;}.cls-8{fill:url(#radial-gradient);}.cls-10{fill:#ffafcb;}.cls-11{mix-blend-mode:color-dodge;}.cls-12,.cls-13,.cls-37{mix-blend-mode:screen;}.cls-12{fill:url(#linear-gradient);}.cls-13{fill:url(#linear-gradient-2);}.cls-14{fill:url(#linear-gradient-3);}.cls-15{fill:url(#linear-gradient-4);}.cls-16{fill:url(#linear-gradient-5);}.cls-17{fill:url(#linear-gradient-6);}.cls-18,.cls-40{opacity:0.15;}.cls-19{fill:url(#linear-gradient-7);}.cls-20{fill:url(#linear-gradient-8);}.cls-21{fill:url(#linear-gradient-9);}.cls-22{fill:url(#linear-gradient-10);}.cls-23{fill:url(#linear-gradient-11);}.cls-24{fill:url(#linear-gradient-12);}.cls-25{fill:url(#linear-gradient-13);}.cls-26{fill:#8cf4ff;}.cls-27{opacity:0.55;fill:url(#linear-gradient-14);}.cls-28{fill:url(#linear-gradient-15);}.cls-29{fill:url(#linear-gradient-16);}.cls-30{fill:url(#linear-gradient-17);}.cls-31{fill:url(#linear-gradient-18);}.cls-32{opacity:0.2;}.cls-33{fill:url(#linear-gradient-19);}.cls-34{opacity:0.4;fill:url(#linear-gradient-20);}.cls-35{mask:url(#mask);}.cls-36{fill:url(#linear-gradient-21);}.cls-38{fill:url(#linear-gradient-22);}.cls-39{mask:url(#mask-3);}.cls-40{mix-blend-mode:multiply;}.cls-41{fill:url(#linear-gradient-23);}.cls-42{stroke:#fff;stroke-linecap:round;stroke-miterlimit:10;stroke-width:20px;}</style><clipPath id="clip-path"><circle class="cls-4" cx="719.19" cy="719.19" r="719.19"/></clipPath><radialGradient id="radial-gradient" cx="719.19" cy="719.19" r="719.5" gradientUnits="userSpaceOnUse"><stop offset="0" stop-color="#fff"/><stop offset="1" stop-color="#fff" stop-opacity="0"/></radialGradient><linearGradient id="linear-gradient" x1="1139.19" y1="438.3" x2="1139.19" y2="478.3" gradientUnits="userSpaceOnUse"><stop offset="0" stop-color="#1f2ad5" stop-opacity="0.1"/><stop offset="1" stop-color="#c838e7"/></linearGradient><linearGradient id="linear-gradient-2" x1="270.81" y1="993.27" x2="270.81" y2="1033.27" xlink:href="#linear-gradient"/><linearGradient id="linear-gradient-3" x1="588.92" y1="389.72" x2="588.92" y2="369.72" gradientUnits="userSpaceOnUse"><stop offset="0" stop-color="#5fbaa0"/><stop offset="1" stop-color="#f6ee1e" stop-opacity="0"/></linearGradient><linearGradient id="linear-gradient-4" x1="840.77" y1="1068.66" x2="840.77" y2="1048.66" xlink:href="#linear-gradient-3"/><linearGradient id="linear-gradient-5" x1="560.49" y1="639.23" x2="560.49" y2="619.23" xlink:href="#linear-gradient-3"/><linearGradient id="linear-gradient-6" x1="840.77" y1="603.26" x2="840.77" y2="583.26" xlink:href="#linear-gradient-3"/><linearGradient id="linear-gradient-7" x1="226.81" y1="502.3" x2="226.81" y2="350.3" gradientUnits="userSpaceOnUse"><stop offset="0" stop-color="#5fbaa0"/><stop offset="1" stop-color="#f6ee1e"/></linearGradient><linearGradient id="linear-gradient-8" x1="226.81" y1="490.3" x2="226.81" y2="362.3" xlink:href="#linear-gradient-7"/><linearGradient id="linear-gradient-9" x1="226.81" y1="478.3" x2="226.81" y2="374.3" xlink:href="#linear-gradient-7"/><linearGradient id="linear-gradient-10" x1="226.81" y1="466.3" x2="226.81" y2="386.3" xlink:href="#linear-gradient-7"/><linearGradient id="linear-gradient-11" x1="1156.76" y1="1099.27" x2="1156.76" y2="1001.27" gradientUnits="userSpaceOnUse"><stop offset="0" stop-color="#cd4557"/><stop offset="1" stop-color="#e3b019"/></linearGradient><linearGradient id="linear-gradient-12" x1="1156.76" y1="1087.27" x2="1156.76" y2="1013.27" xlink:href="#linear-gradient-11"/><linearGradient id="linear-gradient-13" x1="1156.76" y1="1075.27" x2="1156.76" y2="1025.27" xlink:href="#linear-gradient-11"/><linearGradient id="linear-gradient-14" x1="924.25" y1="924.25" x2="514.13" y2="514.13" gradientUnits="userSpaceOnUse"><stop offset="0" stop-color="#ffafcb" stop-opacity="0"/><stop offset="1" stop-color="#e678ff"/></linearGradient><linearGradient id="linear-gradient-15" x1="616.93" y1="769.59" x2="603.79" y2="662.57" gradientUnits="userSpaceOnUse"><stop offset="0" stop-color="#4268db"/><stop offset="0.11" stop-color="#4d7de0"/><stop offset="0.4" stop-color="#68b0ed"/><stop offset="0.66" stop-color="#7cd5f7"/><stop offset="0.87" stop-color="#88ecfd"/><stop offset="1" stop-color="#8cf4ff"/></linearGradient><linearGradient id="linear-gradient-16" x1="766.96" y1="990.09" x2="710.57" y2="670.3" gradientUnits="userSpaceOnUse"><stop offset="0.21" stop-color="#4268db"/><stop offset="0.31" stop-color="#4771dd"/><stop offset="0.49" stop-color="#548be4"/><stop offset="0.71" stop-color="#6ab4ef"/><stop offset="0.97" stop-color="#88edfd"/><stop offset="1" stop-color="#8cf4ff"/></linearGradient><linearGradient id="linear-gradient-17" x1="765.06" y1="990.42" x2="727.88" y2="779.58" gradientUnits="userSpaceOnUse"><stop offset="0" stop-color="#de009f"/><stop offset="0.12" stop-color="#de05a1"/><stop offset="0.25" stop-color="#de12a7"/><stop offset="0.39" stop-color="#df29b1"/><stop offset="0.54" stop-color="#df48be"/><stop offset="0.69" stop-color="#e071d0"/><stop offset="0.84" stop-color="#e0a3e5"/><stop offset="1" stop-color="#e1dcfe"/><stop offset="1" stop-color="#e1deff"/></linearGradient><linearGradient id="linear-gradient-18" x1="1082.58" y1="964.66" x2="905.8" y2="787.88" gradientUnits="userSpaceOnUse"><stop offset="0" stop-color="#1f2ad5"/><stop offset="1" stop-color="#c838e7"/></linearGradient><linearGradient id="linear-gradient-19" x1="813.3" y1="977.75" x2="625.09" y2="460.64" gradientUnits="userSpaceOnUse"><stop offset="0" stop-color="#dfff3b"/><stop offset="0.01" stop-color="#e0ff3e" stop-opacity="0.96"/><stop offset="0.05" stop-color="#e2ff4e" stop-opacity="0.78"/><stop offset="0.09" stop-color="#e5ff5d" stop-opacity="0.61"/><stop offset="0.14" stop-color="#e7ff6a" stop-opacity="0.47"/><stop offset="0.2" stop-color="#e9ff76" stop-opacity="0.34"/><stop offset="0.25" stop-color="#ebff7f" stop-opacity="0.23"/><stop offset="0.32" stop-color="#ecff87" stop-opacity="0.15"/><stop offset="0.4" stop-color="#edff8d" stop-opacity="0.08"/><stop offset="0.49" stop-color="#edff91" stop-opacity="0.03"/><stop offset="0.63" stop-color="#eeff93" stop-opacity="0.01"/><stop offset="1" stop-color="#eeff94" stop-opacity="0"/></linearGradient><linearGradient id="linear-gradient-20" x1="924.25" y1="924.25" x2="514.13" y2="514.13" gradientUnits="userSpaceOnUse"><stop offset="0" stop-color="#fff" stop-opacity="0"/><stop offset="1" stop-color="#fff"/></linearGradient><filter id="luminosity-noclip" x="270.22" y="409.94" width="871.19" height="633.7" filterUnits="userSpaceOnUse" color-interpolation-filters="sRGB"><feFlood flood-color="#fff" result="bg"/><feBlend in="SourceGraphic" in2="bg"/></filter><mask id="mask" x="270.22" y="409.94" width="871.19" height="633.7" maskUnits="userSpaceOnUse"><path class="cls-1" d="M947,539.74A289.47,289.47,0,0,0,719.19,429.19c-160.16,0-290,129.84-290,290A288.69,288.69,0,0,0,484,888.8Z"/></mask><linearGradient id="linear-gradient-21" x1="788.11" y1="824.87" x2="623.51" y2="628.71" gradientUnits="userSpaceOnUse"><stop offset="0" stop-color="#cb5180"/><stop offset="0.16" stop-color="#c7517f"/><stop offset="0.31" stop-color="#bd507c"/><stop offset="0.44" stop-color="#aa4e77"/><stop offset="0.58" stop-color="#914c70"/><stop offset="0.71" stop-color="#704966"/><stop offset="0.83" stop-color="#48465b"/><stop offset="0.9" stop-color="#2e4454"/></linearGradient><linearGradient id="linear-gradient-22" x1="788.11" y1="824.87" x2="623.51" y2="628.71" gradientUnits="userSpaceOnUse"><stop offset="0" stop-color="#cb5180"/><stop offset="0.29" stop-color="#853554" stop-opacity="0.66"/><stop offset="0.71" stop-color="#260f18" stop-opacity="0.19"/><stop offset="0.9" stop-opacity="0"/></linearGradient><mask id="mask-3" x="310.58" y="444.19" width="871.19" height="644.53" maskUnits="userSpaceOnUse"><g id="Low_Yellow" data-name="Low Yellow"><path class="cls-3" d="M719.19,994.19a275,275,0,1,1,194.46-80.54A273.19,273.19,0,0,1,719.19,994.19Z"/></g></mask><linearGradient id="linear-gradient-23" x1="828.47" y1="869.96" x2="663.87" y2="673.8" xlink:href="#linear-gradient-22"/></defs><g class="cls-5"><g id="Art_Work" data-name="Art Work"><g class="cls-6"><rect class="cls-7" x="-560.81" y="-0.81" width="2560" height="1440"/><g id="focal"><path class="cls-8" d="M719.19,1438.69A719.69,719.69,0,0,1,439.13,56.23,719.69,719.69,0,0,1,999.25,1382.15,715,715,0,0,1,719.19,1438.69Z"/><path d="M719.19.19a715.47,715.47,0,0,1,402,122.8,721,721,0,0,1,260.5,316.34,718,718,0,0,1-66.29,681.86,721.1,721.1,0,0,1-316.34,260.5,718.1,718.1,0,0,1-681.87-66.29A721.32,721.32,0,0,1,56.69,999.06,718,718,0,0,1,123,317.19,721.17,721.17,0,0,1,439.33,56.69,714.51,714.51,0,0,1,719.19.19m0-1c-397.64,0-720,322.36-720,720s322.36,720,720,720,720-322.35,720-720-322.35-720-720-720Z"/></g><g id="circle_ring" data-name="circle ring"><g class="cls-9"><path class="cls-10" d="M719.19,429.19c-160.16,0-290,129.84-290,290s129.84,290,290,290,290-129.83,290-290S879.36,429.19,719.19,429.19ZM913.65,913.65a275,275,0,1,1,80.54-194.46A273.2,273.2,0,0,1,913.65,913.65Z"/></g></g><g id="satllelite" class="cls-11"><circle class="cls-12" cx="1139.19" cy="458.3" r="20"/></g><g id="satllelite-2" data-name="satllelite" class="cls-11"><circle class="cls-13" cx="270.81" cy="1013.27" r="20"/></g><g id="planet" class="cls-11"><circle class="cls-14" cx="588.92" cy="379.72" r="10"/></g><g id="planet-2" data-name="planet" class="cls-11"><circle class="cls-15" cx="840.77" cy="1058.66" r="10"/></g><g id="planet-3" data-name="planet" class="cls-11"><circle class="cls-16" cx="560.49" cy="629.23" r="10"/></g><g id="planet-4" data-name="planet" class="cls-11"><circle class="cls-17" cx="840.77" cy="593.26" r="10"/></g><g id="planet-5" data-name="planet" class="cls-18"><circle class="cls-19" cx="226.81" cy="426.3" r="76"/></g><g id="planet-6" data-name="planet" class="cls-18"><circle class="cls-20" cx="226.81" cy="426.3" r="64"/></g><g id="planet-7" data-name="planet" class="cls-18"><circle class="cls-21" cx="226.81" cy="426.3" r="52"/></g><g id="planet-8" data-name="planet"><circle class="cls-22" cx="226.81" cy="426.3" r="40"/></g><g id="planet-9" data-name="planet" class="cls-18"><circle class="cls-23" cx="1156.76" cy="1050.27" r="49"/></g><g id="planet-10" data-name="planet" class="cls-18"><circle class="cls-24" cx="1156.76" cy="1050.27" r="37"/></g><g id="planet-11" data-name="planet"><circle class="cls-25" cx="1156.76" cy="1050.27" r="25"/></g><g id="star" class="cls-9"><path class="cls-26" d="M1301.59,766.41l-21.77-3.1a1.12,1.12,0,0,1,0-2.23l21.83-2.65a1.11,1.11,0,0,0,1-1l3.1-21.77a1.13,1.13,0,0,1,2.23,0l2.65,21.83a1.12,1.12,0,0,0,1,1l21.77,3.1a1.13,1.13,0,0,1,0,2.24l-21.83,2.64a1.12,1.12,0,0,0-1,1l-3.1,21.77a1.12,1.12,0,0,1-2.23,0l-2.65-21.83A1.12,1.12,0,0,0,1301.59,766.41Z"/></g><g id="star-2" data-name="star" class="cls-9"><path class="cls-26" d="M848.52,299l-9.81-1.39a.51.51,0,0,1,0-1l9.84-1.19A.52.52,0,0,0,849,295l1.39-9.81a.51.51,0,0,1,1,0l1.19,9.83a.53.53,0,0,0,.44.45l9.81,1.39a.51.51,0,0,1,0,1L853,299.05a.51.51,0,0,0-.44.43l-1.4,9.81a.51.51,0,0,1-1,0L849,299.45A.52.52,0,0,0,848.52,299Z"/></g><g id="star-3" data-name="star" class="cls-9"><path class="cls-26" d="M200,670.62l-21.78-3.1a1.12,1.12,0,0,1,0-2.23l21.83-2.65a1.12,1.12,0,0,0,1-1l3.1-21.77a1.13,1.13,0,0,1,2.23,0l2.65,21.83a1.11,1.11,0,0,0,1,1l21.77,3.1a1.13,1.13,0,0,1,0,2.24l-21.83,2.64a1.15,1.15,0,0,0-1,1l-3.09,21.77a1.13,1.13,0,0,1-2.24,0L201,671.6A1.14,1.14,0,0,0,200,670.62Z"/></g><g id="star-4" data-name="star" class="cls-9"><path class="cls-26" d="M586.66,1060.44l-9.81-1.4a.5.5,0,0,1,0-1l9.84-1.2a.49.49,0,0,0,.44-.43l1.4-9.81a.51.51,0,0,1,1,0l1.19,9.84a.5.5,0,0,0,.43.44l9.81,1.39a.51.51,0,0,1,0,1l-9.84,1.19a.52.52,0,0,0-.44.44l-1.39,9.81a.51.51,0,0,1-1,0l-1.19-9.84A.51.51,0,0,0,586.66,1060.44Z"/></g><g id="meteor" class="cls-9"><path class="cls-26" d="M315.61,611.34A7.5,7.5,0,1,1,305,600.73c2.93-2.93,58.35-47.74,58.35-47.74S318.54,608.41,315.61,611.34Z"/></g><g id="meteor-2" data-name="meteor" class="cls-9"><path class="cls-26" d="M442,1103.35a7.5,7.5,0,1,1-10.61-10.61c2.93-2.93,58.35-47.75,58.35-47.75S444.92,1100.42,442,1103.35Z"/></g><g id="meteor-3" data-name="meteor" class="cls-9"><path class="cls-26" d="M907.75,387.53a7.5,7.5,0,1,1-10.61-10.61c2.93-2.93,58.35-47.75,58.35-47.75S910.68,384.6,907.75,387.53Z"/></g><g id="meteor-4" data-name="meteor" class="cls-9"><path class="cls-26" d="M1090.29,661.61a7.5,7.5,0,0,1-10.61-10.6c2.93-2.93,58.36-47.75,58.36-47.75S1093.22,658.69,1090.29,661.61Z"/></g><g id="meteor-5" data-name="meteor" class="cls-9"><path class="cls-26" d="M1299.38,604.85a3.09,3.09,0,0,1-4.38-4.37c1.21-1.21,24.09-19.72,24.09-19.72S1300.59,603.65,1299.38,604.85Z"/></g><g id="meteor-6" data-name="meteor" class="cls-9"><path class="cls-26" d="M1061.48,326.6a3.1,3.1,0,0,1-4.38-4.38c1.21-1.21,24.1-19.72,24.1-19.72S1062.69,325.39,1061.48,326.6Z"/></g><g id="meteor-7" data-name="meteor" class="cls-9"><path class="cls-26" d="M434.48,545a3.1,3.1,0,0,1-4.38-4.38c1.21-1.21,24.09-19.71,24.09-19.71S435.69,543.75,434.48,545Z"/></g><g id="meteor-8" data-name="meteor" class="cls-9"><path class="cls-26" d="M529.2,437.89a3.1,3.1,0,1,1-4.38-4.38c1.21-1.21,24.09-19.71,24.09-19.71S530.41,436.68,529.2,437.89Z"/></g><g id="meteor-9" data-name="meteor" class="cls-9"><path class="cls-26" d="M698.6,1044.86a3.1,3.1,0,1,1-4.38-4.38c1.21-1.21,24.09-19.71,24.09-19.71S699.81,1043.65,698.6,1044.86Z"/></g><g id="meteor-10" data-name="meteor" class="cls-9"><path class="cls-26" d="M334.73,768.67a3.1,3.1,0,1,1-4.38-4.38c1.21-1.21,24.09-19.72,24.09-19.72S335.94,767.46,334.73,768.67Z"/></g><g id="Base"><circle class="cls-27" cx="719.19" cy="719.19" r="290"/></g><path class="cls-28" d="M624.25,768.13c64.54-13,100.42-54.87,146.6-87-7.13.59-11.08.72-11.08.72s-24.25,2.69-119.48-18.08c-55.68-12.15-135.93,29.57-193,66.32C525.38,774,583.35,776.35,624.25,768.13Z"/><path class="cls-29" d="M994.11,712.39c0-.67-.05-1.33-.07-2,0-1.62-.11-3.23-.19-4.83,0-.74-.08-1.48-.12-2.21-.09-1.58-.19-3.14-.31-4.71,0-.69-.1-1.38-.16-2.07-.13-1.67-.28-3.34-.45-5-.06-.56-.11-1.13-.17-1.7-.2-1.92-.43-3.84-.67-5.76,0-.29-.07-.59-.11-.88q-1.35-10.34-3.45-20.47l-.06-.28a277,277,0,0,0-60.25-17.66,214.76,214.76,0,0,0-69.94-.52c-35.77,5.77-63,20-87.31,36.87-46.18,32.09-82.06,74-146.6,87-40.9,8.22-98.87,5.9-176.94-38l-2.79,1.8c0,.77.06,1.53.1,2.3l.09,1.64c.1,1.62.21,3.23.33,4.85,0,.54.09,1.09.14,1.64.13,1.61.28,3.21.44,4.81.05.55.11,1.11.17,1.66.17,1.59.35,3.18.55,4.76l.21,1.67c.2,1.58.42,3.15.65,4.71.09.57.17,1.13.26,1.7.24,1.55.49,3.1.76,4.64.09.58.19,1.15.3,1.72.27,1.54.56,3.06.86,4.59.11.58.22,1.16.34,1.74.3,1.51.63,3,1,4.52.13.59.25,1.18.39,1.76.34,1.49.69,3,1.05,4.46.15.59.29,1.19.44,1.78.37,1.47.76,2.93,1.15,4.39.16.6.32,1.21.49,1.81.4,1.44.81,2.88,1.24,4.31l.54,1.84q.64,2.12,1.32,4.23c.2.62.4,1.25.61,1.87.45,1.39.92,2.77,1.4,4.14l.66,1.91c.48,1.36,1,2.71,1.48,4.06.24.64.48,1.29.73,1.93.5,1.33,1,2.66,1.56,4,.26.65.51,1.31.78,2,.53,1.3,1.08,2.6,1.63,3.89.29.66.56,1.33.85,2,.56,1.27,1.13,2.54,1.71,3.8.3.67.6,1.35.91,2,.58,1.25,1.18,2.49,1.78,3.72.32.68.65,1.36,1,2,.6,1.22,1.22,2.43,1.84,3.64.35.68.69,1.37,1,2.05.62,1.19,1.26,2.37,1.9,3.55.38.69.75,1.39,1.13,2.07.64,1.16,1.3,2.31,2,3.46.4.7.79,1.4,1.2,2.1.66,1.13,1.34,2.25,2,3.38l1.28,2.1c.68,1.11,1.38,2.2,2.07,3.3l1.35,2.12c.7,1.07,1.42,2.14,2.13,3.21.48.71.94,1.42,1.42,2.12.72,1.06,1.46,2.1,2.2,3.15.5.7,1,1.41,1.49,2.11.74,1,1.5,2.06,2.25,3.08.52.7,1,1.41,1.56,2.11.76,1,1.54,2,2.32,3,.54.7,1.07,1.4,1.62,2.09.79,1,1.6,2,2.41,3l1.65,2c.83,1,1.67,2,2.51,3,.57.66,1.12,1.33,1.69,2,.87,1,1.76,2,2.65,3,.55.63,1.1,1.26,1.66,1.87q1.49,1.62,3,3.21l1.44,1.56c1.51,1.57,3,3.12,4.57,4.67A275,275,0,0,0,994.19,719.19C994.19,716.92,994.16,714.66,994.11,712.39Z"/><path id="bottom_liquid_level" data-name="bottom liquid level" class="cls-30" d="M869.19,755.26c-91.13,7.39-151.93,106.45-254.7,129-47.1,10.35-95.57-11.84-138.88-37.23A275.13,275.13,0,0,0,990,767.66C948.85,753.37,908.71,752.06,869.19,755.26Z"/><g id="planet-12" data-name="planet" class="cls-11"><circle class="cls-31" cx="994.19" cy="876.27" r="125"/></g><g id="shadow"><path class="cls-32" d="M913.65,524.74a273.23,273.23,0,0,0-124.18-71.51,279.76,279.76,0,0,1,24.18,21.51A275,275,0,0,1,619.19,944.19a276.45,276.45,0,0,1-70.28-9A275,275,0,0,0,913.65,524.74Z"/></g><g id="Low_Yellow-2" data-name="Low Yellow"><path class="cls-33" d="M719.19,994.19a275,275,0,1,1,194.46-80.54A273.19,273.19,0,0,1,719.19,994.19Z"/></g><g id="Shine"><circle class="cls-34" cx="719.19" cy="719.19" r="290"/></g><g class="cls-35"><g id="ring" class="cls-11"><path class="cls-36" d="M1135.86,425.66c-38-54.29-261.37,36.52-498.88,202.83S237.74,973.63,275.75,1027.92,537.13,991.4,774.64,825.09,1173.88,480,1135.86,425.66Zm-372.69,383C539.23,965.51,332,1056,300.33,1010.71s124.18-209,348.12-365.84,431.16-247.24,462.84-202S987.11,651.9,763.17,808.7Z"/></g></g><g class="cls-35"><g id="ring_-_intensify" data-name="ring - intensify" class="cls-37"><path class="cls-38" d="M1135.86,425.66c-38-54.29-261.37,36.52-498.88,202.83S237.74,973.63,275.75,1027.92,537.13,991.4,774.64,825.09,1173.88,480,1135.86,425.66Zm-372.69,383C539.23,965.51,332,1056,300.33,1010.71s124.18-209,348.12-365.84,431.16-247.24,462.84-202S987.11,651.9,763.17,808.7Z"/></g></g><g class="cls-39"><g id="ring_-_shadow" data-name="ring - shadow" class="cls-40"><path class="cls-41" d="M1176.23,470.75c-38-54.29-261.38,36.52-498.89,202.83S278.1,1018.72,316.12,1073,577.49,1036.48,815,870.17,1214.24,525,1176.23,470.75Zm-372.7,383C579.59,1010.6,372.37,1101,340.69,1055.8S464.87,846.77,688.81,690,1120,442.72,1151.65,488,1027.47,697,803.53,853.79Z"/></g></g><path id="reflection" class="cls-42" d="M578.92,530.59a232.47,232.47,0,0,1,71.15-36.12"/><path id="reflection-2" data-name="reflection" class="cls-42" d="M539.33,567.92q6.49-7.7,13.69-14.9,3.68-3.66,7.47-7.15"/></g></g></g></svg>