<?xml version="1.0" encoding="iso-8859-1"?>
<!-- Uploaded to: SVG Repo, www.svgrepo.com, Generator: SVG Repo Mixer Tools -->
<svg fill="#000000" height="800px" width="800px" version="1.1" id="Layer_1" xmlns="http://www.w3.org/2000/svg" xmlns:xlink="http://www.w3.org/1999/xlink" 
	 viewBox="0 0 512.01 512.01" xml:space="preserve">
<g>
	<g>
		<path d="M347.371,207.307l-25.6-25.6c-3.337-3.337-8.73-3.337-12.066,0l-87.834,87.834l-28.1-28.1
			c-3.337-3.337-8.73-3.337-12.066,0l-25.6,25.6c-3.337,3.336-3.337,8.73,0,12.066l59.733,59.733c1.664,1.673,3.849,2.5,6.033,2.5
			c2.185,0,4.369-0.836,6.033-2.5l119.467-119.467C350.708,216.037,350.708,210.644,347.371,207.307z M221.871,320.741
			l-47.667-47.667l13.534-13.534l28.1,28.1c3.337,3.337,8.73,3.337,12.066,0l87.834-87.834l13.534,13.534L221.871,320.741z"/>
	</g>
</g>
<g>
	<g>
		<path d="M510.025,301.746l-38.11-45.739l38.11-45.739c2.125-2.543,2.577-6.084,1.178-9.079c-1.408-2.995-4.42-4.915-7.731-4.915
			H391.403l-7.484-52.403c-0.597-4.207-4.198-7.33-8.448-7.33h-65.178c-10.052-8.38-48.828-40.687-48.828-40.687
			c-3.166-2.645-7.757-2.645-10.923,0l-48.828,40.687h-65.178c-4.25,0-7.842,3.123-8.448,7.322l-7.484,52.412H8.538
			c-3.311,0-6.323,1.92-7.731,4.915c-1.408,3.004-0.947,6.545,1.178,9.079l38.11,45.739l-38.11,45.739
			c-2.125,2.543-2.577,6.084-1.178,9.079c1.408,3.004,4.42,4.915,7.731,4.915h112.068c2.278,15.915,7.492,52.412,7.492,52.412
			c0.597,4.207,4.198,7.322,8.439,7.322h65.178l48.828,40.687c1.587,1.323,3.524,1.98,5.461,1.98s3.883-0.657,5.461-1.98
			l48.819-40.687c13.261,0,65.203,0.034,65.186,0c4.25,0,7.842-3.123,8.448-7.322c0,0,5.214-36.497,7.492-52.412h112.06
			c3.311,0,6.323-1.92,7.731-4.915C512.611,307.821,512.15,304.28,510.025,301.746z M26.757,298.674l31.002-37.205
			c2.637-3.166,2.637-7.765,0-10.923L26.757,213.34h83.029l-31.002,37.205c-2.637,3.166-2.637,7.765,0,10.923l31.002,37.205H26.757z
			 M377.46,301.737c-0.418,0.503-0.785,1.058-1.075,1.647c-0.597,1.195-0.623,1.246-8.303,55.023
			c-62.882,0-62.942,0.034-64.691,0.905c-0.589,0.299-1.143,0.657-1.647,1.075l-45.739,38.11l-45.739-38.11
			c-1.527-1.28-3.465-1.98-5.461-1.98h-60.868c-7.68-53.777-7.706-53.828-8.303-55.023c-0.299-0.589-0.657-1.143-1.075-1.647
			l-38.11-45.73l38.11-45.739c1.016-1.22,1.673-2.688,1.894-4.258l7.484-52.403h60.868c1.997,0,3.925-0.7,5.461-1.98l45.739-38.11
			c46.49,38.741,46.524,38.758,47.386,39.194c1.186,0.589,2.492,0.896,3.814,0.896h60.868l7.484,52.412
			c0.222,1.57,0.879,3.038,1.894,4.258l38.11,45.73L377.46,301.737z M402.223,298.674l31.002-37.205
			c2.637-3.166,2.637-7.765,0-10.923l-31.002-37.205h83.029l-31.002,37.205c-2.637,3.166-2.637,7.765,0,10.923l31.002,37.205
			H402.223z"/>
	</g>
</g>
</svg>