<svg id="Logo" xmlns="http://www.w3.org/2000/svg" viewBox="0 0 415.36 97.08">
  <g>
    <g>
      <path d="M141.28,75.33V53H121.64V75.33h-10V22.38h10V44.16h19.64V22.38h10v53Z"/>
      <path d="M187.94,75.33H180l-.71-2.63a21.14,21.14,0,0,1-11.53,3.42c-7.07,0-10.1-4.85-10.1-11.53,0-7.87,3.42-10.89,11.29-10.89h9.3V49.65c0-4.29-1.19-5.8-7.39-5.8A53.76,53.76,0,0,0,160.12,45l-1.19-7.39a50.16,50.16,0,0,1,13.27-1.83c12.17,0,15.74,4.29,15.74,14Zm-9.7-14.63h-7.15c-3.18,0-4.05.87-4.05,3.82,0,2.7.87,3.89,3.89,3.89a15.15,15.15,0,0,0,7.31-2Z"/>
      <path d="M206.71,76.12a45.71,45.71,0,0,1-13.36-2.22l1.35-7.4a43.09,43.09,0,0,0,11.53,1.67c4.29,0,4.93-1,4.93-3.89,0-2.39-.48-3.58-6.76-5.09-9.46-2.31-10.57-4.69-10.57-12.16,0-7.8,3.42-11.21,14.47-11.21a50.64,50.64,0,0,1,11.6,1.35l-1,7.71a67.72,67.72,0,0,0-10.65-1.11c-4.22,0-4.93.95-4.93,3.34,0,3.1.23,3.33,5.48,4.69C219.66,54.66,220.7,56.09,220.7,64,220.7,71.51,218.39,76.12,206.71,76.12Z"/>
      <path d="M249.56,75.33v-27c0-2.07-.88-3.1-3.11-3.1s-6.59,1.43-10.09,3.26V75.33h-9.7V20.79l9.7-1.35V39.55a34.21,34.21,0,0,1,14.15-3.73c6.44,0,8.74,4.53,8.74,11.44V75.33Z"/>
      <path d="M266.41,31.13V19.92h9.7V31.13Zm0,44.2V36.61h9.7V75.33Z"/>
      <path d="M282.87,36.93c0-9.7,5.64-15.34,18.84-15.34a59.64,59.64,0,0,1,14.39,1.75L315,32a78.56,78.56,0,0,0-13-1.35c-6.91,0-9.14,2.38-9.14,8V59c0,5.64,2.23,8,9.14,8a78.56,78.56,0,0,0,13-1.35l1.12,8.66a59.64,59.64,0,0,1-14.39,1.75c-13.2,0-18.84-5.64-18.84-15.34Z"/>
      <path d="M336,76.12c-13.28,0-16.85-7.31-16.85-15.26V51.08c0-7.95,3.57-15.26,16.85-15.26s16.85,7.31,16.85,15.26v9.78C352.82,68.81,349.25,76.12,336,76.12Zm0-32c-5.17,0-7.15,2.31-7.15,6.68V61.18c0,4.37,2,6.67,7.15,6.67s7.16-2.3,7.16-6.67V50.76C343.13,46.39,341.14,44.08,336,44.08Z"/>
      <path d="M378.58,44.72a76.46,76.46,0,0,0-10.25,5.64v25h-9.7V36.61h8.19l.63,4.29c2.15-1.43,6.76-4.13,10.18-5.08Z"/>
      <path d="M415.36,62.45c0,8.58-3.82,13.67-12.8,13.67A53.19,53.19,0,0,1,392.22,75V91l-9.7,1.35V36.61h7.71l1,3.26a20.4,20.4,0,0,1,12.24-4c7.79,0,11.93,4.61,11.93,13.43Zm-23.14,4.37a42.87,42.87,0,0,0,8.59,1c3.5,0,4.85-1.66,4.85-5.16V49c0-3.18-1.2-4.93-4.77-4.93a13.73,13.73,0,0,0-8.67,3.5Z"/>
    </g>
    <g>
      <polygon points="38.22 0 0 22.05 0 22.06 0 75 14.36 83.29 14.36 30.34 38.22 16.56 38.22 0"/>
      <polygon points="53.47 0 53.47 42.17 38.22 42.17 38.22 26.43 23.86 34.72 23.86 88.75 38.22 97.06 38.22 55.01 53.47 55.01 53.47 70.64 67.83 62.36 67.83 8.29 53.47 0"/>
      <polygon points="53.47 97.08 91.69 75.03 91.69 75.01 91.69 22.08 77.33 13.79 77.33 66.74 53.47 80.52 53.47 97.08"/>
    </g>
  </g>
</svg>
