<svg id="Layer_1" data-name="Layer 1" xmlns="http://www.w3.org/2000/svg" viewBox="0 0 933 438"><defs><style>.cls-1{fill:#5900cb;}.cls-2,.cls-5{fill:#8438fa;}.cls-3{fill:none;stroke-linecap:round;stroke-linejoin:round;}.cls-3,.cls-5{stroke:#fff;stroke-width:5px;}.cls-4{fill:#fff;}</style></defs><rect class="cls-1" x="369" y="52" width="254" height="321" rx="15"/><rect class="cls-2" x="365" y="47" width="248" height="314" rx="15"/><path class="cls-3" d="M380.25,347.38v-282a2.91,2.91,0,0,1,2.89-2.93h35.7v5.18H429.5V62.41h123v5.18h10.68V62.41h35.67a2.91,2.91,0,0,1,2.92,2.9V343.55a3,3,0,0,1-2.92,2.93Z"/><path class="cls-3" d="M563.08,55.89h-10.7V67.61h10.7Z"/><path class="cls-3" d="M547.5,67.61V71a10.29,10.29,0,0,0,10.25,10.25,9.85,9.85,0,0,0,7.22-3A10.52,10.52,0,0,0,568,71V67.61Z"/><path class="cls-3" d="M429.22,55.89H418.5V67.61h10.71Z"/><path class="cls-3" d="M413.67,67.61V71a10.29,10.29,0,0,0,10.25,10.25,9.85,9.85,0,0,0,7.21-3,10,10,0,0,0,3-7.21V67.61Z"/><path class="cls-3" d="M430.43,132H415.57a4.59,4.59,0,0,1-4.57-4.57V112.57a4.59,4.59,0,0,1,4.57-4.57h14.86a4.59,4.59,0,0,1,4.57,4.57v14.86A4.59,4.59,0,0,1,430.43,132Z"/><path class="cls-4" d="M557.83,126H451.17a6,6,0,0,1,0-12H557.83a6,6,0,0,1,0,12Z"/><path class="cls-3" d="M429.43,223H414.57a4.59,4.59,0,0,1-4.57-4.57V203.57a4.59,4.59,0,0,1,4.57-4.57h14.86a4.59,4.59,0,0,1,4.57,4.57v14.86A4.59,4.59,0,0,1,429.43,223Z"/><path class="cls-4" d="M542.6,217H449.4c-3,0-5.4-2.73-5.4-6s2.45-6,5.4-6h93.2c3,0,5.4,2.73,5.4,6S545.55,217,542.6,217Z"/><path class="cls-3" d="M429.43,268H414.57a4.59,4.59,0,0,1-4.57-4.57V248.57a4.59,4.59,0,0,1,4.57-4.57h14.86a4.59,4.59,0,0,1,4.57,4.57v14.86A4.59,4.59,0,0,1,429.43,268Z"/><path class="cls-4" d="M572,262H451c-3.83,0-7-2.73-7-6s3.18-6,7-6H572c3.83,0,7,2.73,7,6S575.82,262,572,262Z"/><path class="cls-3" d="M429.43,313H414.57a4.59,4.59,0,0,1-4.57-4.57V293.57a4.59,4.59,0,0,1,4.57-4.57h14.86a4.59,4.59,0,0,1,4.57,4.57v14.86A4.59,4.59,0,0,1,429.43,313Z"/><path class="cls-4" d="M518,307h-69.9c-2.21,0-4.05-2.73-4.05-6s1.84-6,4.05-6H518c2.21,0,4,2.73,4,6S520.16,307,518,307Z"/><path class="cls-3" d="M430.43,177H415.57a4.59,4.59,0,0,1-4.57-4.57V157.57a4.59,4.59,0,0,1,4.57-4.57h14.86a4.59,4.59,0,0,1,4.57,4.57v14.86A4.59,4.59,0,0,1,430.43,177Z"/><path class="cls-4" d="M568.84,171H451.16a6,6,0,0,1,0-12H568.84a6,6,0,0,1,0,12Z"/><path class="cls-5" d="M422.91,258.05c15-4.36,31.38.18,39.83,17,7,13.93,7.48,28.35,2.2,43.08h0c-3.57,9.94-9.45,18.56-16.57,26.53-14.15,15.81-31.07,28.22-49.62,38.68l-.7.36-.55.3a10.76,10.76,0,0,0-1.66,1,1.85,1.85,0,0,1-1.28.51,4.8,4.8,0,0,1-2-.74h0a214.35,214.35,0,0,1-39.71-27.69h0c-9.4-8.43-17.87-17.47-24-28.34h0c-4.45-7.87-7.6-16-8.2-24.82-.91-13.42,1.62-25.71,10.2-36h0c7.27-8.76,16.87-12.16,28.28-11.09h0c12.14,1.13,21.29,7.7,29.2,17,.92,1.09,1.73,2.2,2.64,3.45.45.63.93,1.29,1.47,2l2.43,3.23,1.74-3.51.72-1c.55-.78,1-1.46,1.55-2.15h0c6.41-8.42,14-14.9,24-17.81Z"/><path class="cls-3" d="M310,327.66h41.66L374.42,286l18,71,13.28-44,11.69,15.21H480"/></svg>