<svg id="Layer_1" data-name="Layer 1" xmlns="http://www.w3.org/2000/svg" viewBox="0 0 485.47 111.83"><defs><style>.cls-1{fill:#fb390e;}.cls-1,.cls-2{stroke:#000;stroke-linecap:round;stroke-linejoin:round;stroke-width:4px;}.cls-2{fill:none;}</style></defs><polygon class="cls-1" points="26.84 2.25 62.78 2.25 57.32 22.96 22.43 22.96 26.84 2.25"/><path class="cls-1" d="M21.6,25.18H56.68L40.05,99.68s-2,9.95-11.7,10.09-26.35,0-26.35,0v-19l5-.11Z"/><path class="cls-2" d="M101.58,47.27H90.44s1.89-5.94,3.68-7.17,8.59.56,9.06,1.51S101.58,47.27,101.58,47.27Z"/><path class="cls-1" d="M141.74,24.42h10l3.33-13.16h34.6l-2.78,13.16h28.49l3.7-13.16h34.22l-3,13.16h24.61l-3.15,15.26H247l-7,30.78h24.24l-3.33,17h-44.4s-11.1-5-11.1-15.74l6.47-32.07H183l-6.85,30.59,24.6-.18-3.88,17.4h-43.1s-11.84-3.34-12-15.92l5.92-31.89-8.61.1Q140.4,32.1,141.74,24.42Z"/><path class="cls-1" d="M125.56,24.42h-58a16.67,16.67,0,0,0-4.16,2.49,16.28,16.28,0,0,0-3.6,4.14q-4.55,20.69-9.1,41.37a13,13,0,0,0,.71,8.36,13.08,13.08,0,0,0,7.08,6.71h68.93l4.06-17H85.15l1.23-6.33h45.69c1.14,0,5.2-13.88,7.09-25S125.56,24.42,125.56,24.42Zm-24,22.85H90.44s1.89-5.94,3.68-7.17,8.59.56,9.06,1.51S101.58,47.27,101.58,47.27Z"/><path class="cls-1" d="M276.16,24.36H311L300.28,70.53h12.5L324,24.36h34.65c-26.84,102.14,2.22,82.63-102,84.17l3.24-15.46h40.51s3.25.38,7.23-4.86l-32.72-.72A12.27,12.27,0,0,1,269,84.31a12.57,12.57,0,0,1-3.67-8Q270.74,50.36,276.16,24.36Z"/><path class="cls-1" d="M366.24,24.36h34.4L394.22,51H360Z"/><polygon class="cls-1" points="357.51 60.36 392.64 60.36 386.65 87.49 351.51 87.49 357.51 60.36"/><polygon class="cls-1" points="463.18 2 483.47 2 438.95 96.82 418.09 96.82 463.18 2"/><polygon class="cls-1" points="429.55 2 449.84 2 405.31 96.82 384.46 96.82 429.55 2"/></svg>